<svg class="govuk-header__logotype dbt-header__logotype" fill="currentColor" height="35" width="97" xmlns="http://www.w3.org/2000/svg"><title>DBT</title><path d="M15.85.09c.14.2.23.36.26.53a.21.21 0 0 0-.07.08.9.9 0 0 1-.48-.3v.78c.1-.15.3-.25.48-.3.01.03.04.06.08.08a.86.86 0 0 1-.22.49c-.2.1-.36.3-.4.53h.59v-.6c.1-.02.2-.01.31.01v.59h.58a.74.74 0 0 0-.4-.54c-.12-.1-.2-.3-.25-.47a.21.21 0 0 0 .1-.1c.18.05.35.16.47.3V.4a.9.9 0 0 1-.48.3.21.21 0 0 0-.08-.1c.04-.18.13-.36.26-.51ZM13.3 2.16c-.03 0-.06 0-.1.02a.2.2 0 0 0-.18.2c0 .12.06.23.16.26l.03.07c-.15.04-.3.1-.44.17l-.04-.08a.24.24 0 0 0-.33-.33.3.3 0 0 0-.1.27c.02.1.13.18.24.18h.01l.03.07-.35.3-.06-.04a.24.24 0 1 0-.46-.05c0 .07.03.15.1.19a.3.3 0 0 0 .22.03l.07.05c-.08.12-.14.25-.18.38l-.09-.02a.22.22 0 0 0-.22-.19c-.11 0-.22.07-.24.18-.03.1.02.22.1.26.1.05.23.04.3-.04l.1.02c-.02.15-.02.3 0 .45l-.1.03a.24.24 0 0 0-.17-.1.24.24 0 1 0 0 .5c.1 0 .2-.08.22-.2l.1-.01.15.4-.08.05a.24.24 0 0 0-.35.31.24.24 0 0 0 .45-.1l.08-.05.17.26-.34.14c.1.13.2.3.28.47a.28.28 0 0 0 .19.52l.19.65-.08.02c-.05.01-.08.01-.1.06v.1c.02.07.06.12.13.12l.13-.03.01.04-.03.02c-.13.07-.18.19-.15.3.03.08.13.15.25.16h.02v.07c-.2.11-.31.24-.31.38 0 .59 1.91.9 3.68.9 1.78 0 3.7-.31 3.7-.9 0-.14-.11-.26-.3-.36v-.1h.02c.11 0 .19-.08.21-.15.03-.1-.01-.2-.11-.28l-.02-.01V7.7l.01-.03a17.77 17.77 0 0 1 .07.01.14.14 0 0 0 .05-.28l-.05-.01c.06-.24.12-.47.19-.68a.28.28 0 0 0 .17-.44c.08-.19.19-.36.3-.5l-.31-.14c.05-.07.12-.17.2-.32l.08.06c0 .11.08.21.18.22.1.01.22-.01.27-.11.04-.1.03-.22-.05-.29a.27.27 0 0 0-.3-.02l-.09-.04c.07-.14.12-.27.16-.41l.09.02a.24.24 0 0 0 .47-.06.25.25 0 0 0-.24-.24.23.23 0 0 0-.18.08l-.1-.02a.98.98 0 0 0 0-.45l.11-.02a.24.24 0 1 0-.06-.22l-.1.02c-.04-.13-.1-.26-.17-.37l.07-.05c.03.01.06.02.1.01a.24.24 0 1 0-.23-.19l-.06.05-.1-.1a2.34 2.34 0 0 0-.25-.2l.04-.08H20a.24.24 0 1 0-.23-.23c0 .04 0 .08.03.1l-.05.1a1.46 1.46 0 0 0-.43-.17l.03-.08c.1-.03.16-.12.16-.23a.24.24 0 0 0-.47 0c0 .08.03.14.09.19l-.03.08h-.17a.92.92 0 0 0-.25.03l-.02-.11a.23.23 0 0 0 .09-.19.24.24 0 0 0-.48 0c0 .11.07.2.17.22l.02.12c-.15.05-.3.11-.43.18l-.05-.1a.22.22 0 0 0 .05-.14.24.24 0 0 0-.48 0c0 .12.11.22.22.23l.06.11-.12.06c-.16.05-.31.1-.48.13v-.1a.24.24 0 1 0-.23.04l.01.1a2.44 2.44 0 0 1-.33.02v-.42h-.39a.75.75 0 0 0 .68-.58h-1.45c.07.32.35.56.68.58h-.42v.42h-.25l.01-.1a.22.22 0 0 0 .17-.23.24.24 0 0 0-.45-.1c-.04.09-.02.2.06.28l-.01.1a2.72 2.72 0 0 1-.6-.2l.06-.11c.1 0 .18-.08.22-.19.03-.1-.05-.22-.15-.25-.1-.04-.22-.03-.29.06a.23.23 0 0 0 0 .3l-.04.1c-.14-.07-.3-.13-.44-.17l.03-.13a.23.23 0 0 0-.07-.46.28.28 0 0 0-.17.06.21.21 0 0 0-.07.17c0 .08.03.15.09.19l-.02.1a2.23 2.23 0 0 0-.25-.02h-.16l-.04-.07a.23.23 0 0 0-.1-.44Zm5.73.65c.5.02.93.37 1.05.49.06.05.5.5.4 1.18a2.6 2.6 0 0 1-.31.8c0-.25-.02-.56-.21-.74a.83.83 0 0 0-.62-.27l-.26.03c-.08-.16-.3-.47-.62-.48h-.02c-.3 0-.59.11-.95.35-.18.11-.38.17-.59.16h-.23v-.92h.04c.36 0 .72-.08 1.05-.21l.2-.09a2.36 2.36 0 0 1 1.07-.3Zm-5.54.02h.1c.41.02.72.18.97.3l.2.1c.33.13.67.2 1.01.2l.01.91h-.16c-.2 0-.41-.05-.59-.16a1.73 1.73 0 0 0-.96-.34h-.02c-.34 0-.55.32-.61.48l-.26-.03a.83.83 0 0 0-.63.25c-.19.19-.22.49-.22.74-.11-.22-.26-.51-.3-.8a1.3 1.3 0 0 1 .41-1.16c.12-.1.55-.47 1.05-.49Zm9.91 1.11c.25.28.52.48.78.71.1.11.2.17.28.18.16 0 .22.07.25.11.1.06-.04.06-.16.06.1.07.15.15.23.15.33 0 .3.05.34.08.18.12-.11.08-.19.09.06.08.15.15.24.17.11.02.26-.03.34.05.14.11-.05.08-.2.09.1.1.19.2.33.2.19 0 .23-.04.37.06.2.14-.16.11-.34.11.15.15.2.2.3.2.15 0 .35-.05.45.04.1.1-.1.1-.37.1.07.17.06.3-.18.48a.82.82 0 0 0-.33.53c-.06.43-.31.77-.59 1.06-.26.25-.44.44-.43.86 0 .11.06.3.13.33.12.05.27 0 .4-.05.16-.05.3-.13.45-.2.03-.02.07-.01.06.07l-.1.55v.12c0 .01.01.04.04.04.2.1.53-.11.57-.36.05-.24.4-.63.61-.64.48-.03.88-.22 1.14-.64l.06-.15c0-.06.05-.06.06.01l-.02.25c-.06.3-.3.46-.55.63-.1.05-.21.14-.22.22-.02.27-.13.54-.3.75-.15.18-.31.34-.5.48.08-.01-.02.29-.02.29.1-.08.22-.07.27.05-.02-.22.52-.39.5-.36-.03.18.04.52-.05.62.1 0 .15 0 .2.16.02-.1.1-.22.18-.14.28.16.51.39.7.53.06.04.02.17-.1.19.22.09.75-.05.75-.05s.05.3-.04.4c.16.1.37.21.46.33.12.11.2.25.25.42.12-.23-.02-.52-.24-.7-.11-.08-.2-.16-.15-.33.15.08.26.17.33.27a1 1 0 0 1 .27.41c.12-.22-.03-.5-.25-.67-.1-.08-.25-.16-.18-.35v-.02c.14.1.28.19.36.28.11.12.23.2.27.39.11-.23-.04-.48-.27-.66-.1-.08-.23-.16-.16-.36.13.09.25.16.34.25a.9.9 0 0 1 .27.38c.1-.22-.05-.48-.28-.64l-.15-.14c-.02-.02-.11-.06-.06-.24.14.09.28.17.37.25.1.11.22.22.28.4.11-.23-.06-.5-.3-.67l-.16-.1c-.06-.05-.16-.08-.12-.27.15.08.3.13.4.21.13.1.26.2.33.33.08-.24-.14-.47-.38-.6l-.18-.08c-.05-.04-.1-.1-.1-.25.13.04.27.1.4.16a.9.9 0 0 1 .38.29c.04-.25-.2-.46-.47-.55-.05 0-.12-.05-.17-.07a.27.27 0 0 1-.12-.23l.44.12c.15.05.28.13.4.24 0-.25-.24-.42-.51-.48-.05 0-.11 0-.16-.03-.04-.02-.16-.1-.15-.22.16 0 .32.02.44.05a1 1 0 0 1 .4.2h.01c-.01-.25-.28-.45-.55-.47-.07 0-.15 0-.21-.02-.06-.03-.13-.07-.11-.18.15-.02.31-.02.47 0 .17 0 .22.06.39.14-.05-.24-.32-.44-.6-.43l-.19.01c-.06 0-.2 0-.2-.17.18-.03.36-.06.49-.06.17 0 .26.03.42.09a.55.55 0 0 0-.62-.35l-.2.04c-.06 0-.18.03-.2-.1l.47-.15c.15-.01.3 0 .44.04a.54.54 0 0 0-.64-.27l-.2.06c-.07.02-.17.06-.22-.08.18-.1.27-.15.4-.18a.74.74 0 0 1 .47-.02.53.53 0 0 0-.67-.18l-.21.09a.15.15 0 0 1-.2-.05 1 1 0 0 1 .33-.2c.15-.07.28-.1.46-.12-.16-.18-.46-.17-.72-.03l-.1.04c-.06.05-.16.07-.22-.03a1 1 0 0 1 .67-.25c0-.01-.22-.13-.4-.05a.22.22 0 0 0-.07-.16c0 .14-.2.28-.33.37-.22.18-.46.34-.77.4-.14.01-.2 0-.24-.05-.04-.07-.01-.15.11-.16.25 0 .4-.19.58-.3.06-.06.11-.12.22-.12-.6-.12-.95-.3-1.32.17-.09-.21 0-.32.12-.4.13-.09.28-.14.4-.22.2-.13.27-.41.15-.58-.13.11-.06.19-.2.39-.1.16-.19.17-.26.14.03-.06.11-.2.14-.29.04-.12.04-.1.06-.26 0 0 .02-.26-.08-.28a.7.7 0 0 0-.14.26c-.06.14-.2.55-.35.47l.1-.29c.02-.08.04-.18.05-.32 0-.05 0-.18-.08-.24a1.7 1.7 0 0 0-.16.29l-.21.5-1.72-1.1c-.55-.4-1.1-.81-1.73-1.09ZM18.44 4h.02c.22 0 .4.22.51.44l.02.04h.11l.24-.03c.2 0 .38.08.5.22.22.22.17.71.13.9l-.22-.1a1 1 0 0 1 .2.7h-.02c-.04 0-.08.02-.11.03a.92.92 0 0 1-.34-.47 3 3 0 0 1-.28.77c.16-.06.3-.1.46-.09-.02.09.01.17.07.23-.16.23-.43.47-.84.36-.36-.08-.61-.36-.54-.72.03-.1.12-.24.3-.22.17.02.18.29.13.4.22-.11.45-.73.1-.82-.2-.05-.42.11-.57.3.11-.23.22-.49.24-.6.05-.2-.05-.38-.15-.67-.05.13-.34.38-.38.56-.02.11 0 .37.03.61-.1-.2-.27-.38-.45-.38-.38.03-.26.67-.14.82.03-.2.16-.4.27-.39.1 0 .23.17.2.36-.03.33-.44.56-.78.56-.37 0-.68-.23-.76-.73a.27.27 0 0 0 .07-.11c.23.05.53.2.66.37-.04-.3-.04-.62 0-.92-.17.2-.47.28-.68.32a.27.27 0 0 0-.05-.06c.08-.25.24-.46.47-.6h-.19v-.59h.04l.18.02c.26 0 .49-.06.69-.2.33-.21.6-.31.86-.31Zm-4.4 0h.03c.26 0 .52.1.86.34.2.12.45.19.69.18h.16v.57h-.14c.23.11.34.31.4.52a.3.3 0 0 0-.13.1.91.91 0 0 1-.56-.3c.05.36.05.56 0 .93.1-.15.34-.26.54-.33.04.07.1.12.17.15a.86.86 0 0 1-.76.64c-.36.04-.82-.1-.88-.49-.03-.18.21-.32.3-.33.11 0 .26.14.28.35.09-.26.16-.77-.2-.78-.21-.02-.36.17-.44.39.04-.27.08-.57.06-.7-.03-.2-.27-.45-.33-.58-.11.29-.22.44-.19.66.02.13.1.38.2.6-.16-.16-.38-.28-.55-.2-.34.13-.08.69.14.8-.04-.11-.06-.41.11-.43.18 0 .27.2.28.3.05.36-.22.61-.59.67-.48.09-.78-.16-.86-.44a.24.24 0 0 0 .04-.2c.21-.06.4-.02.61.07a3.2 3.2 0 0 1-.3-.77.93.93 0 0 1-.43.52l-.03-.02a1 1 0 0 1 .19-.77l-.18.08c-.04-.23-.06-.65.13-.85a.66.66 0 0 1 .51-.22l.23.02.11.01.04-.04c.1-.22.29-.44.5-.44ZM4.68 5.04l-.26.03c.05.05.09.1.11.17a.07.07 0 0 0-.02.06c0 .02.02.04.04.05 0 .06 0 .12-.05.17a.25.25 0 0 0-.1.2l.19-.03-.03-.2h.1l.03.19.19-.03a.25.25 0 0 0-.22-.17h.06c-.05-.03-.08-.1-.1-.14l.01-.01.01-.01V5.3c.07 0 .14.04.18.08l-.03-.25a.31.31 0 0 1-.15.12L4.6 5.2c0-.06.02-.11.07-.18Zm-.36.15.05.27a.3.3 0 0 1 .15-.14L4.5 5.3v-.03a.3.3 0 0 1-.19-.08Zm.26.04c.03 0 .05.02.06.04v.04h-.01a.05.05 0 0 0 0 .01H4.6v.01l-.01.01a.06.06 0 0 1-.07-.04.06.06 0 0 1 .04-.07Zm.03.12Zm1.04.21c-.03 0-.06.04-.08.08-.01.04.01.08.05.1v.02a.6.6 0 0 0-.11.02l-.01-.02c0-.02.02-.04 0-.08l-.03-.05-.07-.03a.1.1 0 0 0-.08.12c0 .04.03.06.07.07l.03.04a.94.94 0 0 0-.11.05h-.02V5.8l-.02-.06a.12.12 0 0 0-.1-.01l-.06.03c-.02.02-.01.06-.01.08 0 .04.04.08.09.08l.02.02a.73.73 0 0 1-.17.08V6c.01-.02.03-.04.01-.07l-.03-.06-.08-.02c-.03 0-.04.02-.05.04l-.02.07c0 .05.03.07.07.08a.62.62 0 0 1-.07.02l-.02-.12-.15.02c.1-.03.19-.12.2-.23l-.49.08c.04.1.14.16.25.15l-.12.02v.01a.09.09 0 0 0-.08-.05c-.04 0-.08 0-.1.03a.1.1 0 0 0-.02.08c.01.04.04.06.07.08a.9.9 0 0 1-.17-.01L4.2 6.1v-.02a.11.11 0 0 0 .04-.05c.02-.02.02-.07 0-.11-.02-.05-.06-.05-.1-.04a.1.1 0 0 0-.08.11c0 .02.01.03.03.05v.03a.95.95 0 0 0-.14-.02v-.03c.04-.03.06-.06.05-.1l-.04-.07-.07-.01c-.04 0-.05.02-.06.03a.09.09 0 0 0-.02.08c0 .02.02.04.04.05v.04h-.12c.01-.04.02-.06.01-.08a.1.1 0 0 0-.05-.09c-.04-.02-.08 0-.11.02-.04.03-.04.06-.02.1.03.05.04.07.08.08v.01a.64.64 0 0 0-.1.07v-.02a.1.1 0 0 0-.12-.11l-.07.03c-.03.02-.03.04-.02.07l.04.06c.02.01.04.02.06.01l.01.02a.66.66 0 0 0-.05.07l-.02.03h-.02v-.02a.08.08 0 0 0-.1-.08c-.06.02-.1.04-.08.1 0 .07.04.1.08.1h.03l.02-.02h.01a.5.5 0 0 0-.02.11h-.02a.1.1 0 0 0-.12-.04.09.09 0 0 0-.05.03.1.1 0 0 0 .15.11l.03.01c0 .04 0 .08.02.11l-.02.03a.09.09 0 0 0-.07-.03.1.1 0 0 0-.07.15c.03.03.06.05.1.04.05 0 .07-.03.07-.07h.02l.06.1h-.06c-.04 0-.08.06-.08.12 0 .05.05.07.1.07h.01c.06 0 .1-.05.08-.1h.02l.07.06-.12.06c.05.05.1.1.13.15a.09.09 0 0 0-.04.09l.04.06c.02.03.04.01.07.01l.1.2a6.03 6.03 0 0 0-.03.02c-.01.02-.02.04 0 .05v.01c0 .02.03.03.05.03l.04-.02v.02c-.04.04-.05.07-.03.11.02.05.04.05.09.05v.03c-.05.04-.07.08-.06.11v.02c-.09.14-.38-.12-.7.16a.52.52 0 0 0-.16.6c.11.25.36.33.68.27 0 .1-.05.2-.11.27-.07.08-.19.14-.25.31-.05.22-.05.65.16.84-.03-.25-.03-.35.03-.5.06-.12.16-.22.22-.2-.05.2-.08.42-.08.63 0 .22 0 .35.12.55 0-.25.1-.56.23-.58.14.22-.02.42-.05.61-.05.23.08.33.22.4-.04-.1 0-.22.02-.32s.12-.4.3-.33c-.18.36-.18.56-.1.83.06.18.23.39.36.41a.9.9 0 0 1-.15-.46c0-.23.03-.48.13-.54.04.05.11.13.09.3-.02.2-.04.26.02.45.05.13.12.26.22.36-.06-.39-.02-.8.16-.9-.02.3-.05.54.05.71.1.18.16.37.17.57 0 .08 0 .13-.03.17-.2-.04-.3-.2-.35-.32-.25.04-.34-.03-.55-.18a1.44 1.44 0 0 1-.33-.5c-.11 0-.33-.14-.45-.29-.22-.22-.19-.44-.37-.72-.05.53-.41.9-.17 1.4.09-.2.14-.37.27-.52-.01.2 0 .42.03.63.02.15.08.33.17.4a.63.63 0 0 1 .03-.37.45.45 0 0 1 .22-.29c.04.11.03.16.02.27-.01.11 0 .22.03.33.04.22.1.33.16.48-.01-.15 0-.3.06-.43a.38.38 0 0 1 .16-.23c.15.25.12.4.15.64.02.22.16.3.2.46.1-.21-.08-.55.22-.75-.06.3-.06.5.04.74.06.13.2.24.25.44.03-.29-.11-.57.04-.86.13.13.09.25.12.4.06.2.17.3.11.5.28-.1.16-.61.16-.91 0-.2.02-.18.05-.31a1 1 0 0 0 .02-.12c.03-.23-.15-.54-.14-.66.12-.01.23.23.29.38l.04-.02-.03.02a.9.9 0 0 1 .02.55c-.06.3-.04.6.03.89.03.18.38.53.4.66.05-.15-.13-.51-.15-.6-.02-.19-.05-.27-.05-.45s.06-.44.08-.44c.06.05.17.28.16.55 0 .2.06.4.2.55.08.1.2.08.24.27a.52.52 0 0 0 0-.34c-.05-.23 0-.28.02-.51 0-.2 0-.2-.04-.38-.02-.12 0-.3.06-.35.07.02.15.26.15.38 0 .11.02.37.08.49.1.19.33.33.32.49.11-.39.08-.72-.05-1.11-.05-.18-.12-.36-.12-.54.14.05.27.48.33.64.04.1.03.11.1.21.09.1.18.18.3.23.22.11.3.25.4.45a.8.8 0 0 0-.07-.46c-.11-.32-.26-.4-.51-.63-.11-.11-.28-.41-.22-.51.15 0 .34.28.5.44.17.17.45.25.53.5a.92.92 0 0 0-.33-.75 4.5 4.5 0 0 0-.45-.3c.06-.02.08-.01.16-.01.05 0 .18.07.24.08.11.07.17 0 .3.13.02-.02-.14-.29-.23-.36a.85.85 0 0 0-.31-.17c-.18-.06-.45-.05-.6-.11a1.2 1.2 0 0 1-.33-.21 1 1 0 0 1-.42.67c-.1.09-.15.12-.2.08-.06-.04-.06-.09-.06-.13l-.02-.18-.23.14.22-.15-.03-.41c0-.06 0-.17.08-.23.1.03.17.1.19.22.03.15.03.36-.03.43.3-.17.3-.45.24-.69-.06-.18-.22-.28-.19-.44.24-.04.32.28.33.44a.7.7 0 0 0 .09-.5c-.04-.1-.2-.24-.13-.4.09 0 .13.05.18.14.05.08.08.16.1.25a.64.64 0 0 0-.02-.46c-.06-.15-.15-.17-.18-.4.12-.06.13.1.27.14 0-.15.02-.22-.12-.42.04-.05.15 0 .2.06 0-.16-.14-.34-.22-.43.05-.03.1 0 .16.03.03-.13-.06-.27-.14-.33-.1-.07-.17-.06-.25-.14a.7.7 0 0 1-.21-.34c.25 0 .49-.14.63-.35.1-.16.13-.35-.04-.51a.45.45 0 0 0-.46-.11c-.17.04-.27.2-.46.14v-.02a.2.2 0 0 0-.12-.1v-.03c.05-.02.06-.04.06-.07 0-.03 0-.07-.04-.08a.18.18 0 0 0-.04-.01v-.01h.05s.02 0 .02-.02c.02 0 .04-.02.04-.04l-.03-.03h-.02a4.29 4.29 0 0 0-.02-.01l.02-.22a.12.12 0 0 0 .06-.11.09.09 0 0 0-.03-.06.73.73 0 0 1 .08-.19l-.11-.03.04-.1.03.01a.1.1 0 0 0 .1.07c.03 0 .05-.01.06-.04a.09.09 0 0 0 .02-.07c0-.03-.03-.06-.06-.07H6.2l.02-.11h.02a.1.1 0 0 0 .18-.07c0-.04-.06-.06-.11-.06a.1.1 0 0 0-.06.03h-.03v-.03a.52.52 0 0 0 0-.04.52.52 0 0 0-.01-.05l.01-.01c.02.01.05.02.08 0 .03 0 .09-.05.07-.1 0-.06-.05-.09-.1-.08a.1.1 0 0 0-.08.08h-.03a.69.69 0 0 0-.05-.08h.03c.06-.02.1-.07.08-.11-.01-.04-.06-.1-.11-.09-.06.01-.09.06-.08.11v.01L6 5.86a.69.69 0 0 0-.08-.04v-.03c.06 0 .09-.05.08-.1a.09.09 0 0 0-.18-.03.1.1 0 0 0 0 .09v.02a.55.55 0 0 0-.11-.02v-.02c.02-.01.04-.06.03-.1 0-.02 0-.05-.03-.06Zm-.08.28h.1c.14 0 .28.08.33.1.1.08.17.21.17.35a.8.8 0 0 1-.04.27c-.01-.08-.05-.18-.11-.22a.29.29 0 0 0-.17-.07.48.48 0 0 0-.13.03c-.05-.04-.14-.14-.23-.12a.58.58 0 0 0-.31.16.39.39 0 0 1-.26.08l-.04-.27a.98.98 0 0 0 .34-.12l.06-.05c.07-.04.16-.1.3-.14Zm22.7.1-.05.07c-.1.14-.05.25-.07.3-.02.06-.09.14-.09.14.11 0 .24-.08.28-.17a.55.55 0 0 0 0-.33h-.06Zm-23.72.11.01.08a.9.9 0 0 1-.08.01.11.11 0 0 0 .07-.09Zm-.74.06h.06c.11 0 .2.03.27.05a.9.9 0 0 0 .43.04l.04.28a.22.22 0 0 1-.12.03l-.13-.03c-.14-.07-.24-.09-.35-.07-.11.03-.16.14-.18.2-.09 0-.2 0-.28.12-.05.07-.05.17-.03.25a.83.83 0 0 1-.15-.23.45.45 0 0 1 .08-.41c.09-.12.21-.2.36-.23Zm24.8 0c-.02.01-.05.02-.08.06-.05.1-.03.19-.04.23-.01.04-.07.09-.08.1.1 0 .2-.06.23-.12a.4.4 0 0 0 0-.26h-.03Zm-23.12.11c.07 0 .14.06.19.12l.02.04h.03l.11-.03c.05 0 .1.02.14.05.08.05.1.2.1.28l-.09-.03c.07.06.1.14.11.23a.11.11 0 0 0-.04.03.29.29 0 0 1-.13-.14 1 1 0 0 1-.07.27.3.3 0 0 1 .16-.05c0 .04 0 .05.03.07-.05.1-.11.18-.26.17-.12 0-.22-.09-.22-.2 0-.04.02-.1.09-.1.07 0 .08.1.07.12.06-.04.1-.26-.01-.27-.07 0-.12.04-.17.1l.05-.2c0-.08-.05-.13-.09-.22-.01.04-.08.14-.09.21 0 .08.02.16.05.24-.05-.08-.12-.14-.19-.13-.12.03-.05.23 0 .27 0-.06.03-.14.07-.14.04 0 .08.05.08.11 0 .11-.11.22-.22.22s-.25-.03-.3-.19A.1.1 0 0 0 4.93 7c.08 0 .16.03.22.08a.99.99 0 0 1-.04-.3.32.32 0 0 1-.2.12l-.02-.02c0-.09.04-.17.1-.22h-.04l-.03-.18c.07 0 .18-.02.28-.11a.58.58 0 0 1 .28-.16Zm23.42.1-.07.03c-.06.06-.02.13-.12.17.1.02.14 0 .19-.05.04-.04.04-.13.02-.15h-.02Zm-24.82.16c.07 0 .15.03.24.07.05.02.1.03.16.03.05 0 .1 0 .13-.02l.03.2.05-.01-.08.02a.3.3 0 0 1 .15.14.11.11 0 0 0-.02.04.32.32 0 0 1-.22-.07c.03.1.05.2.04.3a.43.43 0 0 1 .2-.14.1.1 0 0 0 .04.04.3.3 0 0 1-.22.26c-.11.04-.28.01-.33-.1-.02-.08.06-.12.1-.13.03-.01.08.02.1.09.02-.1.02-.26-.1-.25-.07 0-.1.06-.12.12 0-.08 0-.15-.02-.2-.02-.06-.12-.14-.15-.18-.02.11-.04.17-.03.22l.1.2c-.07-.05-.14-.07-.2-.03-.1.06.01.22.1.25-.03-.03-.05-.13 0-.14a.1.1 0 0 1 .11.09c.05.1-.04.22-.15.25-.16.04-.28-.02-.31-.11v-.06c.07-.04.13-.03.2 0a1 1 0 0 1-.13-.25.3.3 0 0 1-.12.19.29.29 0 0 1 0-.27l-.04.03c-.03-.07-.06-.2 0-.28.07-.1.15-.1.23-.1h.04v-.02c.04-.08.08-.16.15-.17h.07Zm23.82.35c.06 0 .12.02.19.04.33.1-.18-.04-.4.23-.04.06-.1.08-.17.03s-.02-.1.02-.16a.42.42 0 0 1 .36-.14Zm-22.3.46.5.03c.02 0 .03 0 .03.03 0 .02-.01.03-.02.03-.35-.03-.7-.02-1.05.03.18-.05.36-.1.55-.12Zm20.5.04c.06 0-.04.21.02.25l.53.42c-.2.13-.66.1-.78-.01-.06-.05-.28.21-.25.1l.25-.6a.47.47 0 0 1 .22-.16Zm-21.59.2c-.26.05-.52.12-.77.22h-.03l-.02-.02s0-.03.02-.03c.26-.08.53-.14.8-.17Zm1.03.05c.37 0 .61.05.63.13 0 .03-.03.07-.1.12a.7.7 0 0 1-.32.02c-.24 0-.49 0-.74.04-.21.01-.93.27-1.15.24-.04-.02-.06-.04-.06-.06-.02-.1.43-.33 1.13-.44h.03c.21-.04.4-.05.58-.05Zm10.67.3c2.09 0 3.55.4 3.55.75s-1.45.75-3.55.75c-2.09 0-3.54-.4-3.54-.75 0-.36 1.46-.75 3.54-.75Zm23.23.47v21h7.98c1.56 0 2.81-.15 3.75-.45a7.46 7.46 0 0 0 2.98-1.67 9.25 9.25 0 0 0 2.25-3.7c.42-1.26.64-2.75.64-4.48 0-1.97-.23-3.62-.69-4.96a9.15 9.15 0 0 0-2-3.4 7.02 7.02 0 0 0-3.17-1.94c-.91-.27-2.25-.4-4-.4Zm21.2 0v21h7.16l5.1-.15a5.6 5.6 0 0 0 4.66-3.15c.45-.9.68-1.83.68-2.79a5.06 5.06 0 0 0-3.98-5.07 4.88 4.88 0 0 0 2.14-1.85c.54-.82.8-1.72.8-2.7a4.7 4.7 0 0 0-.64-2.45 5.35 5.35 0 0 0-3.81-2.63c-.81-.14-2.05-.2-3.7-.2Zm19.68 0v3.55h6.23v17.45h4.23V11.9H97V8.34Zm-74.25.17c.04 0 .08 0 .12.02-.1.17-.06.22-.09.38-.04.3-.35.35-.55.33a.5.5 0 0 1 .11.5c-.06.2-.1.16-.14.36.1-.04.44-.19.5-.1.1.2.12.36-.16.49-.08.03-.08.03-.15.1-.05.07-.04.19 0 .3.04.16 0 .28-.13.3-.1.03-.22 0-.27-.14a.48.48 0 0 1-.04-.38h-.35c-.08 0-.17 0-.22-.07-.08-.08-.17-.27-.07-.33.11-.06.39-.08.47-.08-.07-.2-.26-.22-.34-.35a.62.62 0 0 1-.04-.45l-.25.04c-.2.02-.28-.1-.32-.25a.6.6 0 0 0-.2-.33c.03-.05.1-.08.16-.08h.22c.1.02.19.01.28 0 .1-.04.13-.07.22-.14.06.1.06.18.04.34-.02.18-.02.36.01.53.06.21.17.27.37.23.22-.05.22-.14.21-.28-.03-.37-.3-.48-.14-.9.1.09.25.08.45.03.1-.01.18-.07.3-.07Zm10.16 0c-.94 0-1.87.11-2.79.33v.05c0 .03.02.05.06.05h.02a11.5 11.5 0 0 1 2.71-.28c1.05 0 2.02.1 2.7.27.04.01.08 0 .1-.04 0-.05-.03-.09-.06-.09a11.6 11.6 0 0 0-2.74-.29ZM7.3 9.55c.2.26-.05.59-.05.8 0 .07 0 .15.02.22.07.28-.05.37-.12.61-.05.15-.07.24.13.36.1.05.22.08.33.08.21.01.34-.02.56.05-.19-.31-.64-.25-.71-.64.2-.08.39.35.7.2-.21-.12-.2-.27-.32-.4-.11-.1-.25-.16-.34-.25a.25.25 0 0 1-.05-.29c.04.09.1.16.16.23.17.13.38.08.48.35.02-.02.11-.33-.27-.48-.24-.1-.27-.3-.3-.54 0-.14-.13-.23-.22-.3Zm2.46.23v.34c.06.25.16.35.62.35a.52.52 0 0 1-.07-.35c.04-.26-.1-.31-.55-.34Zm1.4.02c-.4.02-.56.13-.56.42-.01.27.1.52.3.7.14.13.27.25.56.14.05 0 .13.03.19.05.13.15.27.2.48.02.12-.07.16.02.23.03.36.16.6-.14.8-.4.25-.33.04-.85-.35-.8l-.93-.05Zm9.58.12c-.12 0-.24.02-.34.03-.15.03-.28.1-.41.13-.14.02-.23.05-.25.22a.4.4 0 0 1-.15.24c-.37.22-.62.58-.69 1 .32.05.3-.12.43-.29v.33c.48 0 .93-.32.74-.75.03 0 .05-.03.07-.02.19.07.34.06.51-.08.06-.06.2-.07.3-.06.42.03.82.17 1.16.4.31.22.56.5.7.87l.66 1.86c.05.1.13.22.35.2l.44-.06c.11 0 .06.11.05.15-.05.1-.23.15-.35.15-.6 0-1.21.22-1.83.08a.6.6 0 0 0-.45.1c-.24.2-.48.41-.7.64l-.3.3c-.14.12-.3.23-.46.3-.08.03-.14 0-.22-.08a.49.49 0 0 0-.24-.15c-.2.45-.62.55-.83.23a.72.72 0 0 0-.38.31c-.08.13-.2.22-.33.22-.08 0-.1 0-.15-.07a.9.9 0 0 0-.26.22c-.1.16-.19.35-.13.58a.92.92 0 0 1-.24.91V18l-.01-.16c-.15.12-.33.2-.51.25-.04-.18-.22-.44.09-.47-.11-.1-.25-.19-.33-.3-.1-.13-.11-.26-.17-.4-.13-.5.06-1.03.48-1.32.06-.04.19-.07.25-.05.07.02.11.14.17.23.06-.12.1-.28.22-.33l.24-.13-.15-.32a.5.5 0 0 1-.18.09 4.57 4.57 0 0 0-.81.31c-.36.24-.44.22-.56.24.24.21.03.44-.14.55a.4.4 0 0 1-.4-.04.59.59 0 0 1-.18-.18.54.54 0 0 1-.07-.44h-.01c.03-.08.08-.14.18-.14.4-.02.54-.33.89-.5.04-.02.1-.05.1-.09-.38 0 .27-.44.27-.7-.2.07-.13-.14-.1-.2l.18-.5c.01-.03.11-.21.1-.3-.07.05-.11.05-.18.05 0 0 .11-.7.1-.8-.08.03-.22.06-.2-.05.03-.3.1-.44.18-.63-.05 0-.27.02-.18-.22.04-.1.15-.34.12-.5-.3.12-.13-.21-.05-.34a.69.69 0 0 1 .24-.22c-.1 0-.2 0-.3.05-.12.04-.23.1-.34.17-.3.18-.3.2-.56-.07-.26.27-.37.53-.54.77-.06.1-.17.04-.26-.14-.14.18-.13.5-.18.75-.03.17-.11.17-.13.17-.04 0-.07.01-.11-.06-.05.1-.05.1-.07.2-.03.16-.02.3-.03.46 0 .13-.05.37-.2.42.13.12.21.28.22.46.04.2.07.28-.08.34a.44.44 0 0 1-.24.03c0 .1.03.2.08.3.1.22.22.56.07.73.2-.03.4.06.58.25a.5.5 0 0 1 .15.25h.02v.08c-.03.08-.1.08-.14.1a.9.9 0 0 1-.28 0c-.22-.03-.33-.11-.22-.41-.56.44-1.36.36-1.83-.18.03.19.1.36.18.52.14.23.33.38.57.56.05-.18.33-.24.55-.17l.55.21c.06.02.14.05.14.15-.02.07-.11.1-.16.1l-.24.07.14.14.15.16c.23-.03.46-.03.7 0 .23.04.27.07.35.2.11.15.03.28.03.4 0 .06 0 .12.02.19.15-.25.27-.22.42.05.07.15.15.3.2.45.07.2.1.33-.1.5a.51.51 0 0 0-.18.27c.4-.26.35.47.35.56 0 .28-.22.4-.35.62-.05.06-.07.09-.1.22.22-.17.24 0 .22.18l-.02.1.04.03-.05-.02-.05.2c-.01.07-.14.15-.2.09l-.22-.27a1.96 1.96 0 0 0-.79-.57 3.75 3.75 0 0 0-1.57-.37l-.07-.01-.27.3c.32-.04.66 0 .98.05a2.14 2.14 0 0 1 1.4.9c.1.19.07.25.04.28-.05.05-.15.1-.37.02l-.69-.25a3.55 3.55 0 0 0-3.49.64c-.39.32-.66.66-1.03 1-.07.08-.17.17-.25.16-.25 0-.34-.19-.2-.39.2-.3.4-.58.64-.84.25-.29.55-.53.89-.72h-.01l.55-.28c.27-.11.7-.27.59.04.13 0 .24-.1.3-.15.19-.2.3-.41.5-.45l.14-.02.28-.3c-.04 0-.13-.07-.1-.17 0-.07.04-.2.05-.26.04-.14.16-.28.42-.2l-.02-.4c-.02-.28.13-.3.34-.3l-.12-.52-.08-.22c-.14-.28-.14-.33.1-.46.23-.15.5-.24.77-.28a1.82 1.82 0 0 0-.3-.3l-.74.18c-.22.05-.4.04-.52-.2-.12-.19-.2-.2-.2-.2s-.02.1-.15.12l-.26-.03a3.28 3.28 0 0 0-.58-.07c.1.09-.01.2-.08.2-.25.04-.57.05-.84.09.16.08.2.33-.03.39-.17.04-.42.04-.56.15.2.15.05.28 0 .32a.86.86 0 0 1-.28.18c-.14.05-.3.11-.34.2.28.06-.06.36-.16.47-.11.12-.17.15-.19.3.17 0 .37.04.27.2l-.32.55-.12.25c.38-.22.52-.32.86-.08.05.05.12.06.18.05a.66.66 0 0 0 .27-.12c.18-.14.3-.11.37.1.32-.31.62-.42.77-.25l.33-.4c.17-.2.36-.22.42.05l.17-.32c.08-.14.13-.32.25-.35.05 0 .1-.02.15.07a.8.8 0 0 0 .02-.22l.04-.56c.06.14.08.27.1.5 0 .2.04.43-.12.68-.04-.17-.1-.36-.17-.26-.2.23-.3.55-.48.89 0-.1-.06-.47-.18-.42-.14.04-.35.39-.52.63-.09-.14-.12-.19-.26-.14a.62.62 0 0 0-.21.1c-.16.16-.2.4-.22.6a.65.65 0 0 1-.2.34l-.12.1.17.13-.18-.13-.84.7c-.31.3-.55.65-.84.97-.16.17-.15.16-.33.18-.28.01-.73.02-.85-.1-.18-.2-.49-.62.22-1.1.5-.33.82-.87.86-1.47.03-.32-.1-1.08-.32-1.31-.22-.24-.64-.1-.64-.1s-.77.3-.94.4c-.28.17-.31.45-.47.65-.06.1-.13.12-.2.1-.07-.02-.09-.13 0-.3.17-.29.36-.57.56-.83.9-.86 1.3-1.22 1.5-1.82.11-.3 0-.5-.27-.54-.27-.03-.59.22-1.44.22-.86 0-1.28-.95-1.5-.46-.22.48-.52-.13-.53-.27-.09.9-.42 1.7-.69 2.37-.26.67-.94 1.46-1.26 2.13-.11.23-.18.46-.22.67 0 0-.15.55-.6.58-.45.02-.66-.08-.7-.41-.03-.34.16-.9.31-1.16l1.26-2.1c.04-.09.44-.78.53-1.26.09-.5.17-.92.03-1.3s-.23-.58-.62-.79a1.62 1.62 0 0 0-.76-.22c-.5-.08-.75.02-.92.11-.18.1-.34.22-.5.57-.12.27-.1.52-.1.77.08-.49.4-.9.86-1.1.3-.08.49 0 .49 0-.19.02-.37.09-.52.2-.18.15-.32.34-.41.56.1-.13.28-.28.49-.38.27-.14.59-.19.9-.13-.12.04-.22.1-.32.17a2 2 0 0 0-.47.68 3.1 3.1 0 0 1-.56.81c.15-.04.61-.3.81-.6.2-.28.36-.66.42-.74.07-.08.27-.19.4-.14.08.02.15.07.21.12a1 1 0 0 1 .22.8 5.7 5.7 0 0 1-.97 2.3L.67 19.9c-.33.74-.27 1.71.52 1.92.36.11.9-.11.9-.11s.11-.08.15.1c0 .44.21 1.32.21 1.32l.37.68c.12.24-.04.62-.21.88-.6.45-.67.82-.68.92v-.02c-.12.5-.1.74-.08.96.06-.07.12-.11.17-.11a.97.97 0 0 0-.05.4c.05-.08.1-.14.18-.16-.02.15-.02.3 0 .45.07-.16.13-.3.2-.27l.06.04.04.02c.04.06-.08.25-.1.32-.02.06.08.14.21.18-.12.45-.23.82-.13 1.22.03.18.13.33.3.41a2.4 2.4 0 0 1-.07-.87c.03-.19.12-.36.2-.52.04-.1.15-.06.2.05.06.16.06.5.07.67.01.55.09.86.63 1.14.22.1.4.04.51-.06.08-.06.22-.22.13-.36-.12-.2-.06-.22.11-.21.23.03.4-.11.5-.29.04-.08.05-.35-.12-.33-.43.07-.45-.16-.52-.3-.07-.15-.03-.7.14-.71.03 0 .05-.01.06-.03.15-.08.08-.32-.11-.48-.26-.2-.36-.13-.52-.13-.2-.01-.64.06-.84-.33-.28-.58.16-1.11.16-1.11s1.1-1.32 1.44-1.66c.3-.3.5-.7.53-1.12.08-.48-.25-1.5-.25-2a2.3 2.3 0 0 1 .2-1c.16-.28.34-.11.27.03l-.1.26c-.1.4-.1.76-.04 1.06.02.13.02.33.11.38.19.1.33.03.46-.03.14-.05.5-.07.54.15.06.34-.17.94-.34 1.5-.1.35.28.4.28.4l1.16-.02c.34-.02.54.11.85.2.3.1.54.13.85-.03.12-.06.26-.08.4-.1.08-.02.12 0 .16-.08.24-.52.4-.66.77-1.06a3.9 3.9 0 0 1 1.17-.84c.33-.13.67-.2 1.03-.23.55-.02 1.14-.09 1.57.39.06.06.09.15.07.24-.03.07-.13.08-.2.07l-.67-.05a3.83 3.83 0 0 0-1.13.07c-.58.15-1.12.45-1.54.89-.29.3-.5.5-.7.93l-.24.64c-.11.25-.3.31-.52.13a3.03 3.03 0 0 0-1.8-.6 5.23 5.23 0 0 0-.85 0c-.45.06-.67.08-1.1.21-.55.2-1.04.51-1.44.92-.31.31-.45.44-.7.78-.2.25.02.74.34.77.3.03.44-.22.6-.38.12-.1.19-.21.3-.34a3.82 3.82 0 0 1 1.53-.8c.33-.08.67-.1 1-.1.4.03.7.06.97.35.1.13.14.29.11.42-.04.09-.28.01-.38-.02a2.88 2.88 0 0 0-1.47-.19c-.21.03-.41.09-.6.19-.25.13-.48.3-.68.52-.22.28-.53.67-.44.71.05.02.17-.07.22-.11l.66-.66c.52-.44 1.02-.44 1.74-.28.28.06.57.24.86.35.25.09.45-.03.44-.25-.02-.49.3-.9.78-.94.19-.03.38.05.55.1.22.05.36-.02.41-.23.04-.19 0-.26-.02-.4l-.03-.3c-.04-.36.17-.67.46-1.01.21-.26.61-.56.89-.72a2.35 2.35 0 0 1 1.78-.3c.28.07.56.15.83.24.4.12.69-.04.78-.42 0-.03.02-.07.04-.1.17-.2.37-.18.58.06.24.28.69.3.92.03.15-.18.26-.42.45-.53.38-.21.78-.4 1.19-.48a3.27 3.27 0 0 1 1.84.16c.33.15.5.22.9.52a3.74 3.74 0 0 1 1.37 1.92c.08.34.05.41.03.67-.01.18-.21.31-.33.25-.07-.02-.11-.09-.11-.2-.01-.55-.26-.83-.52-1.21a4.2 4.2 0 0 0-.68-.78 3.01 3.01 0 0 0-1.4-.8c-.34-.1-.53-.08-.9-.07-.45.02-.85.13-1.14.47-.17.18-.17.51-.03.63a.5.5 0 0 0 .52.06c.2-.09.21-.28.2-.44-.03-.2.04-.3.21-.36.6-.18 1.26-.08 1.78.28.4.26.77.59 1.06 1 .2.3.43.54.53.92.02.12 0 .3-.02.41-.05.27.07.6.43.53.24-.04.47-.1.56-.34l.17-.4c.11.34.2.46.53.51l.05.11a.52.52 0 0 0 .72.28c.33-.15.68-.14 1.04-.16a3 3 0 0 1 2.18.77c.34.29.63.62.89.98.25.37.44.83.49 1.31.02.23.04.37-.22.47-.2.09-.27.32-.24.5.03.17.16.37.41.37.17 0 .33 0 .5.04.4.06.74-.15.83-.51.03-.16.11-.21.27-.17.37.1.48-.03.55-.38.03-.15-.03-.3-.08-.51-.06-.3-.2-.67-.29-.98-.03-.15 0-.24.14-.31v-.01l.03-.02c.1-.05.22-.14.24-.24.06-.15.07-.33.05-.5l-.2-1.2c-.01-.22 0-.46-.03-.7-.03-.26-.02-.56-.36-.67a1.4 1.4 0 0 1-.32-.18c-.37-.24-.5-1.04-.21-1.39.27-.33.33-.74.46-1.13.08-.22.17-.3.35-.15.26.22.8.28 1.14.2a.83.83 0 0 0 .63-.53c.15-.37.03-.91-.19-1.33-.19-.36-.3-.47-.52-.8l-.58-.82-.4-.55c-.22-.4-.35-.48-.48-1.1-.06-.3-.06-.6 0-.89.05-.26.18-.36.34-.35.15 0 .22.07.31.18.1.11.15.27.11.43-.03.19.33.4.33.8.11-.72-.07-1.18-.46-1.51a.6.6 0 0 1 .24.01c.42.15.45.75.42 1.14l-.02.98c.02.16.07.6.53.9-.25-.37-.36-.5-.33-1.1.05-.56.02-.71 0-.98-.04-.39-.14-.55-.19-.66-.04-.11-.13-.18-.13-.18.12.07.22.17.29.3.1.22.19.41.19.72v.7c-.05.35.04.7.25.98.18.21.4.39.63.52-.5-.66-.66-.93-.68-1.38-.03-.33.02-.63-.03-.94-.1-.63-.33-1.17-.84-1.44a1.88 1.88 0 0 0-.48-.1c.13-.04.54-.11.97.25.2.17.3.46.44.61.4.39.47.57.65.89-.02-.01-.3-.98-.75-1.47-.25-.28-.68-.4-.7-.41-.7-.23-1.36.28-1.52.95-.07.26-.1.54-.08.8 0 .36.09.65.3 1.05.26.55.44.77.8 1.27l.77 1.1c.14.24.27.42.33.78.1.6-.26.73-.63.66-.6-.11-.89-.56-1.18-1.02-.27-.41-.5-.85-.72-1.27l-.14-.25c-.04-.06-.66-.94-1.07-1.75a3.2 3.2 0 0 1-.18-.56c-.06-.38-.02-.72.04-1.07.02-.05.04-.11 0-.14l-1.01-1c-.2-.15-.56-.4-1.37-.86-.45-.22-.7 0-.97.33-.2.23-.34.48-.51.73-.05-.1-.04-.15 0-.23.06-.13.17-.26.03-.43-.21-.23-.4-.49-.6-.74a5.1 5.1 0 0 1-.45-.95c-.11-.23-.32-.3-.54-.32l-.92-.12c-.27-.04-.52-.16-.79-.22a.5.5 0 0 0-.11-.02Zm-6.82.25c-.4.02-.44.08-.46.33 0 .21-.04.21-.1.31.4 0 .5-.09.56-.33Zm11.9.5c0 .28-.23.78-.3.99a9.03 9.03 0 0 1 2.73 2.09c.16-.14.59-.48.89-.53l-.2-.33a.5.5 0 0 1-.17.36.46.46 0 0 1-.01-.34c-.1.09-.23.16-.36.22.12.01.22.07.3.16-.15.06-.4.15-.57-.06-.11-.15-.12-.33 0-.44.05-.04.12-.07.19 0 .06.06 0 .16-.07.18.13.04.4-.14.29-.28-.05-.07-.16-.08-.26-.06l.22-.14c.07-.07.1-.17.14-.31-.07.03-.24.04-.31.11-.04.04-.11.15-.18.26.03-.12.02-.25-.06-.3-.15-.12-.3.17-.3.27.07-.08.18-.11.23-.08.03.04.03.14-.04.21-.1.12-.33.1-.47-.02-.16-.11-.2-.33-.05-.58.07.1.18.26.18.38.08-.13.17-.25.28-.35-.15.03-.3-.05-.39-.1a.5.5 0 0 1 .39-.11l-.48-.37c.07.15.02.28-.03.39a.66.66 0 0 1-.2-.35 1.6 1.6 0 0 1-.26.36c.11-.03.3.03.4.08-.2.22-.42.19-.56.09-.16-.1-.3-.28-.2-.45.04-.09.18-.06.22-.04.05.02.06.13 0 .22.11-.08.3-.25.16-.38-.07-.05-.17-.04-.25 0 .08-.07.16-.15.19-.2.04-.07.02-.26.04-.33-.13.08-.22.11-.28.2l-.09.27c-.02-.11-.07-.22-.16-.25-.16-.04-.22.26-.18.37.02-.06.1-.18.17-.13.07.04.06.14.02.2-.08.15-.27.17-.44.08-.24-.14-.25-.38-.14-.5.1.03.17.1.24.22.02-.14.06-.28.11-.4-.1.07-.21.1-.33.08a.5.5 0 0 1 .3-.27Zm-15.72.03c-.15.01-.28.09-.3.23l-.29.7-.3.51c-.09.31-.03.44.21.55.23.1.48.09.7-.02.14-.06.3-.12.27-.38 0-.04.05-.1.1-.13.16-.05.25-.14.14-.35-.02-.11.06-.11.1-.17.22-.22.02-.5-.15-.72a.57.57 0 0 0-.48-.22Zm3.34.26c-.1 0-.21.04-.3.1-.22.18-.47.4-.3.67 0 .06.1.08.04.18-.14.18-.09.28.06.38a.3.3 0 0 1 .05.14c-.09.24.04.33.17.43a.9.9 0 0 0 .65.2c.26-.04.33-.15.33-.49-.03-.18-.1-.37-.14-.55l-.11-.73c.01-.21-.21-.34-.45-.33Zm7.68.19a.22.22 0 0 0-.16.1l-.5.71h.02l-.04.07c-.07.1-.13.13-.26.09-.08-.04-.26-.04-.22-.1-.07 0-.12 0-.17.03-.12.03-.44-.07-.34-.11-.15-.04-.3-.01-.46.1l-.01-.01c-.04-.02-.06-.09-.06-.09s-.24.1-.33.22c-.1.1-.25.41-.3.31-.06.11-.07.23-.1.36-.01.04-.08.22-.11.1-.07.06-.07.18-.07.28 0 .06.04.14 0 .18-.09.17 0 .28.08.41.08.11.01.28.21.33.17.07.14.27.03.42-.14.2-.32.21-.55.14.04.15.02.24-.05.3.06.1.12.2.15.3.28-.13.53-.28.74-.5.11-.1.24-.06.33.05l.16.16.31.22c-.02-.16.49-.01.63-.01-.11-.1.28-.15.44-.22-.16-.23.25-.18.36-.31-.11 0-.17-.04-.11-.12l.26-.22c-.1-.04-.02-.17-.03-.25.05 0 .1-.05.16-.06h.49c.33 0 .52.05.84.04.2 0 .31-.15.3-.27 0-.07-.13-.23-.04-.3.04-.03-.03-.11-.04-.17 0-.04-.07-.12-.09-.15 0-.08.03-.1 0-.17-.03-.15-.15-.3-.2-.44-.05-.13-.03-.24-.07-.32l-.15-.12c-.09-.14-.04-.18-.1-.28-.1-.12-.23-.19-.32-.27-.09-.07-.11-.18-.19-.24-.03-.02-.12-.02-.14-.04-.1-.12-.2-.16-.3-.15Zm-9.7.22c-.24 0-.51.24-.52.49.01.08.13.1.21.14.07.01.18.03.2 0 .09-.12.13-.17.3-.2.05.03.05-.11.05-.2 0-.06 0-.18-.14-.22a.32.32 0 0 0-.1-.01Zm9.72.04a.1.1 0 0 1 .07.02c.05.03.07.09.04.14-.06.16-.22.3-.35.45.1-.1.22-.2.39-.3.07-.06.15-.13.22-.08.08.08-.47.53-.58.66.11-.05.5-.38.6-.42.1-.03.14-.02.18.01.02.03.04.1 0 .14-.11.19-.72.54-.82.65.5-.3.96-.5 1.06-.36.03.04 0 .13-.08.18l-.64.36c.17-.04.58-.23.69-.23.09 0 .18-.05.24.07.05.1-.1.18-.18.23l-.38.1.6-.03c.03.01.1-.03.1.04.02.1-.15.13-.22.14l-.75.22.6-.09c.12 0 .44-.02.46.07.04.09 0 .18-.1.18-.24 0-.52.04-.78.07h.69c.1 0 .27.03.3.14 0 .03 0 .13-.06.13-.72.06-.82 0-1.26 0h-.2c.06-.11.02-.18.12-.22-.02-.02-.18-.05-.13-.08.07-.06.02-.14.11-.2-.21-.1-.31-.59-.27-.62a.58.58 0 0 1-.25-.26.3.3 0 0 1 .1-.28c-.11-.01-.18-.12-.11-.22l-.02-.01.02-.03.4-.46c.04-.04.12-.1.19-.1Zm-9.07.01c-.09.03-.1.15-.11.22-.01.08-.02.17 0 .2.12.04.2.15.23.27-.01.03.11.02.19.01s.17-.03.2-.13c.05-.26-.26-.58-.51-.57Zm52.82.42h2.43l3.63.07c.7.08 1.23.33 1.59.74.36.4.54.93.54 1.58 0 .67-.2 1.22-.63 1.64-.4.4-.98.66-1.7.75-1.03.06-2.05.08-3.08.07h-2.78Zm-21.21.05h1.9c1.73 0 2.9.07 3.48.2.8.17 1.45.5 1.96 1a4.8 4.8 0 0 1 1.2 2.02c.3.87.44 2.12.44 3.74s-.15 2.9-.43 3.85a4.4 4.4 0 0 1-1.12 2.02c-.45.42-1.02.7-1.7.88-.53.13-1.38.2-2.57.2h-3.16Zm-32.03.2c-.18 0-.28.15-.27.31 0 .1.17.25.28.27.14.02.3-.08.33-.27.04-.22-.09-.3-.28-.31h-.06Zm-.77.12c-.04 0-.1.01-.14.08-.15.2-.01.62.23.7.07.03.15-.07.19-.14.04-.06.1-.14.07-.18-.08-.12-.11-.17-.08-.34.02-.03-.08-.08-.16-.1l-.1-.02Zm-7.67.02c-.36.57-.14 1.22.01 1.87.09-.12.16-.24.21-.38a1.2 1.2 0 0 0 0-.94c-.1-.2-.24-.33-.22-.55Zm9.35.06-.12.02c-.07.02-.16.06-.16.09 0 .13-.02.19-.13.3-.03.02.02.11.06.16.04.06.1.14.22.1.23-.05.34-.43.23-.64a.13.13 0 0 0-.1-.03Zm-8.85.43c0 .2.03.59.01.79-.02.28-.2.46-.12.84l.07.28c0-.16.15-.36.2-.51.12-.36.14-.72.05-.88a1.57 1.57 0 0 1-.21-.52Zm7.78.15c-.03.01-.09.09-.11.14-.04.07-.08.15 0 .26.16.2.6.15.76-.05.02-.09-.06-.16-.11-.22-.04-.06-.12-.13-.15-.1a.37.37 0 0 1-.36 0l-.01-.02h-.02Zm-2.13.09c-.15 0-.22.07-.3.2l-.1.31c.43.1.5.06.57-.17.07-.22.11-.21.18-.29a1.18 1.18 0 0 0-.35-.05Zm-5.14.06a.95.95 0 0 0-.07.38c.01.44.06.48-.1.92-.07.22.04.65.28.82a.95.95 0 0 1 .07-.62c.09-.21.08-.47.08-.62 0-.37-.26-.49-.26-.88Zm6.2.03c-.05 0-.1 0-.15.02a.8.8 0 0 0-.53.35c-.14.21-.1.34.12.54.17.08.36.16.5.25l.59.37c.2.21.6-.06.62-.4.01-.25 0-.58-.28-.63-.05-.02-.12.03-.16-.09-.04-.2-.15-.23-.3-.2-.05 0-.11 0-.14-.04-.07-.14-.17-.17-.27-.17Zm2.5 0c-.1 0-.19.04-.25.15-.02.05-.01.11-.12.11-.2-.03-.25.06-.27.2-.02.05-.06.11-.09.11-.22.04-.23.18-.26.31-.04.21.01.42.14.59.13.18.27.19.52.07l.37-.37.52-.4c.25-.1.13-.54-.16-.66a1.1 1.1 0 0 0-.4-.1Zm.99.15c-.08 0-.17.02-.3.06.09.06.09.06.16.26.06.18.12.23.5.15a.88.88 0 0 0-.1-.27c-.05-.13-.12-.2-.26-.2Zm-6.32.4c-.01.25-.06.41-.14.63-.03.06-.07.17-.16.24-.1-.08-.08-.2-.14-.32-.04-.11-.13-.22-.2-.23.05.17-.02.28-.03.43 0 .12-.01.22-.04.33-.11 0-.15-.06-.2-.11-.06-.06-.12-.35-.26-.35.03.1.03.21 0 .31 0 .07-.07.17-.12.3-.03-.09-.15-.16-.18-.23-.09-.21-.16-.34-.42-.38-.12-.02-.4-.06-.5-.14.08.12 0 .4-.03.7-.02.32.13.59.11.72.29-.37.26-.73.18-1.18.07.04.13.09.18.15.14.15.16.4.07.74-.06.22 0 .46.17.62-.03-.17.13-.25.07-.53 0-.12.04-.23.1-.32.05.1.05.37.05.48l.06.2c.04.1.2.21.29.21a.63.63 0 0 1-.13-.44.56.56 0 0 1 .11-.22c0 .03.01.66.57.66-.12-.2-.32-.3-.19-.65.08.17.08.25.16.32.1.13.25.2.42.22-.1-.1-.21-.35-.18-.46.1 0 .18.02.26.05l.32.11c.37.12.78.26.72.75.13-.1.17-.2.18-.38.2.03.25.33.2.45.15-.04.2-.23.24-.33.12.02.24.21.18.33.13 0 .23-.2.26-.23.09.05.22.13.18.24.1.03.15-.08.23-.08.08 0 .19.03.19.1.1.05.13-.13.22-.21.05.01.1.04.13.08.03.05.05.1.03.15.1 0 .15-.09.2-.13.21-.23.46-.26.73-.32.35-.08.56-.08.78-.24 0-.2-.08-.44-.3-.5l-.2-.05.14-.17c.12-.2.1-.31-.18-.58-.04.11 0 .11-.13.27-.15.15-.16.23.05.46h-.01c-.06 0-.3 0-.41.03a1.6 1.6 0 0 1-.69.02 6.2 6.2 0 0 1-2.35-.95c-.08-.07-.16-.28-.3-.39-.12-.09-.18-.1-.3-.19Zm-2.82.06a.55.55 0 0 0-.08.25c0 .34 0 .51-.07.8-.1.37.15.81.22.9a.72.72 0 0 1 .09-.42c.08-.23-.02-.35.03-.53.04-.15.06-.3.05-.45-.02-.24-.24-.4-.24-.55Zm27.36.93c.03.15.08.32.1.6 0 .2-.02.5.02.69.11.4.45.78.45.78s-.27-.55-.16-1.02a.66.66 0 0 0-.07-.52c-.05-.08-.14-.24-.34-.53Zm-30.77.4c-.2.03-.87.37-1 .95-.1.5-.3.68-.34.71.34-.2.62-.5.81-.86.15-.29.33-.56.53-.8Zm21.06.1c.12 0 .24.02.36.05l.8.2a6.34 6.34 0 0 1 1.43.63c.16.11.36.11.52 0 .24-.16.5-.3.77-.42.18-.1.27.06.18.1l-.43.3-.26.18c-.25.23-.4.2-.65.16-.16-.03-.28-.17-.45-.21-.14-.01-.15.07-.05.15l.45.5h.01v.01l.07.07c.38.36.68.4 1.02.74.25.23.33.26.55.55.07.08.18.18.23.27.11.18.22.37.3.56.03.07.12.29 0 .28-.08 0-.15-.16-.18-.22-.08-.25-.15-.38-.37-.45l-.78-.27a2.1 2.1 0 0 0-1.4 0c-.18.06-.33.24-.35.26-.35.41-.32 1.02.06 1.4.29.3.53.46.78.8.14.27.23.56.26.86l-.63.11c-.16.01-.33 0-.48-.04a.89.89 0 0 0-.91.24c-.22.22-.37.49-.55.74.56.15.92 0 1.06-.1.25-.17.55-.25.85-.3l1.4-.14c.24-.03.26-.24.23-.4-.04-.15-.16-.47-.2-.72 0-.1-.02-.25.02-.34.08-.17.32-.18.52-.07l.38.17c.14.05.25.03.3-.18.12-.44.1-.6.34-1.1.04-.08.11-.43.14-.58.03-.1.15-.1.15 0-.02.19-.04.36-.1.55-.05.19-.15.33-.2.51-.13.58-.14.88-.18 1.32-.03.44.1.87.37 1.22.3.39.7.67 1.17.8.38.12.73.26.88.67.16.49.37 1 .34 1.52 0 .09-.01.18-.03.26v.02l-.01.05c-.03.07-.12.09-.18.02a5.56 5.56 0 0 0-2.2-2.27c.16-.62-.1-1-.68-1.18-.3-.04-.45.23-.48.27-.13.24-.02.57.1.77.14.24.4.38.7.37.11 0 .25.1.37.17.5.3.96.66 1.36 1.09.2.22.33.44.49.7.04.05.1.25 0 .3-.12.08-.22-.03-.37-.2l-.57-.62-.6-.6a5.16 5.16 0 0 0-.89-.58l-.89-.41c-.05-.03-.14-.11-.13-.17.04-.3-.15-.53-.3-.77-.04-.08-.15-.14-.25-.2-.18-.1-.14.12-.2.16a.33.33 0 0 1-.19.07c-.7 0-1.4.16-2.03.49-.13.06-.24.19-.37.13-.1-.04-.15-.22-.22-.35-.16-.25-.22-.4-.38-.64-.21-.3-.47-.6-.74-.85a3.71 3.71 0 0 0-4.05-.74l-.4.2c-.05.02-.15.02-.18 0-.04-.02-.04-.14 0-.2v-.02h.02a1 1 0 0 1 .52-.5l.3-.12v-.02l.2-.06a3.6 3.6 0 0 1 1.02-.19c.33 0 .45.09.65.28.04.04.1.1.22.16-.02-.07 0-.1.08-.16.03-.03.2 0 .26.03.16.08.53.33.6.37 0-.14.1-.12.14-.13.36 0 1.49.91 1.84 1.64.14-.17.15-.3-.14-.64l-.55-.63c-.05-.05-.17-.16-.12-.26.06-.1.14-.08.22-.08.1.02.13.04.22.1.07-.08.07-.15.04-.26.16.08.34.1.52.08-.04-.08-.03-.11.07-.15.26-.05.5 0 .8.1-.06-.32-.27-.6-.57-.75-.01-.11.07-.25.22-.34a2.73 2.73 0 0 0-.96-.2c-.16 0-.22-.11-.11-.27.02-.05.04-.05.13-.15a2.03 2.03 0 0 0-.7-.06c-.12 0-.16 0-.2-.04-.03-.05-.03-.1.03-.18-.07-.02-.25.03-.34.04-.27.05-.57-.06-.86.08-.06.02-.2.06-.26-.06 0 0-.02-.06 0-.08-.04 0-.1 0-.14.02a.83.83 0 0 1-.35.01.83.83 0 0 1-.34.01h-.06c-.08 0-.2.06-.28.07-.14.01-.29-.04-.44-.01a.4.4 0 0 0-.23.1c-.03.03-.08.04-.1.09-.16.26-.4.33-.65.38l.02.19.12-.02c.2-.02.37-.06.45.2.01.05.12.09.18.14.03.05.06.11.06.16 0 .03-.06.08-.1.09l-.6.15.02.23-.04-.22-.25.07c-.11.03-.22.1-.33.14-.17.08-.37 0-.3-.18.12-.16.2-.34.33-.48a.9.9 0 0 1 .47-.27v-.01l-.04-.2-.37.11c-.15.03-.17-.09-.15-.18.06-.3.2-.56.42-.74l.13-.09c.11-.06.44-.16.66-.13.27.04.54.11.71.38.13-.15.18-.21.15-.37.26.06.44.28.56.39a.37.37 0 0 1 .11-.19c.05-.08.13-.09.2-.11.18-.01.25.05.4.19.24-.28.36-.3.9-.08-.02-.23.12-.35.4-.29.27.07.35-.05.55-.26.07-.08.25-.12.33-.2-.2-.18.06-.31.11-.34.28-.1.48-.23.64-.51.06-.12.18-.15.24-.2-.4-.07-.54.04-.82.04-.18 0-.41 0-.21-.37-.4-.02-.64.14-.89.08-.07 0-.12-.02-.15-.13 0-.06 0-.13.02-.19-.08.06-.15.06-.19.02-.1-.09-.04-.14 0-.2l.17-.19c.24-.22.58-.3.94-.3Zm42.46 5.1h3.43c1.93 0 3.18.1 3.75.3.6.2 1.03.52 1.34.96.3.43.45.97.45 1.6 0 .74-.2 1.34-.6 1.8-.39.43-.9.7-1.53.82-.4.1-1.38.13-2.9.13h-3.93ZM16.5 22.24c-.13.11-.37.1-.5.22-.19.17-.17.7-.63.3.07.08.11.34.44.34.16 0 .3-.05.42-.25.08-.12.2-.13.14-.03l-.33.83a3.2 3.2 0 0 1-.38.75c-.05.07-.06.12-.19.15-.03.01-.17 0-.17.05s.03.03.13.04c.3.05.14.26-.1.4l-.36.32c-.2.15-.3.19-.45 0-.25-.3-.43-.65-.64-.96a1.55 1.55 0 0 1-.24-.94v-.57c-.3.02-.45.2-.6.35-.2.18-.26.4-.53.42.19.17.47.08.77-.15.09-.07.22-.1.22.1v.26a.7.7 0 0 1-.02.22c-.1.28-.22.51-.34.81-.1.24-.2.52-.35.64a.45.45 0 0 1-.25.12c-.22 0-.16.1-.13.1l.58.16c.2.06.34.33.25.48l-.06.09a9.2 9.2 0 0 1-1.76 1.57c-.33.21-1.28.7-1.6.9-.26.14-.56.4-.8.4-.06 0-.12-.07-.12-.22l.02-2.21c-.22 0-.19.22-.42.26-.18.02-.2.07-.2.13l-.03.48c.04.02.11-.02.14-.05.25-.16.23-.08.43-.11l-.03 1.54c0 .06-.02.19-.14.19h-.78c-.06 0-.06.1.05.13.09.02.19.01.27.02.1.01.2.06.26.13.46.5 1.37 1.33 1.57 1.5.14.1.28.21.42.4l.67.95c.25.1.46.26.7.37l1.1.5c.3.12.6.2.91.3l1.3.32 1.2.1c.55.02 1.1 0 1.66-.05.45-.04.9-.13 1.36-.22a6.14 6.14 0 0 0 1.63-.59c.24-.1.66-.38.9-.52-.06-.1-.23-.13-.34-.04-.25.15-.3.22-.72.4-.37.16-.74.33-1.14.44a10.61 10.61 0 0 1-7.79-.89c-.3-.22-.38-.54-.36-1.22 0-.17.08-.25.17-.22l.18.05.69.24c.6.23 1.23.4 1.87.51.19.03.44.08.72.09 0-.08.02-.12-.01-.14-.04-.04-.2-.04-.2-.16 0-.07.18-.07.23-.06.16 0 .27.02.44.04.05.02.02.29 0 .36l.76.03c.09 0 .27 0 .27.07 0 .1 0 .07-.38.1-.05 0-.05.05 0 .05a.4.4 0 0 1 .22.06c.11.11.1.26.09.43 0 .26.15.25.37.25.44.02.77-.01 1.07-.03.14-.04.17-.11.17-.21l-1.15.04c-.05-.02-.04-.06-.05-.11-.01-.06.05-.07.23-.07l.61-.04c.18 0 .22-.06.22-.14h-1.08c-.06 0 0-.2.1-.2.8 0 .83-.1 1.21-.12.12 0 .3.06.3.24 0 .44.16.42.3.4.01 0 .23 0 .2-.3 0-.17-.1-.38 0-.5.1-.15.32-.19.53-.29.17-.08.1-.11.07-.22-.05-.11.01-.19.11-.22l.78-.3.38-.16c.26-.1.26-.23.41.07l.04.11c.12-.07.3-.12.3-.2.04-.3.24-.52.43-.74.16-.21.38-.49.67-.51h2.14c.06-.1.16-.22.01-.22v-.01H24c-.13 0-.11-.11-.11-.2l.02-2.24h-.1v.44c0 .11-.72.6-1 .42-.14-.07-.13-.16-.14-.27-.02-.22-.11-.4-.31-.48-.28-.11-.9.21-1.1.45-.2.25-.2 2.13-.09 2.64h-.07c-.1-.02-.18-.18-.28-.33l-.53-.71-.56-.84c-.17-.26.05-.28.33-.38.22-.08.34-.21.57-.21.3 0 .2-.1.11-.09-.2 0-.26-.13-.3-.22l-.48-1.03c0-.01-.1-.16-.17-.32l-.57-1.26c-.13-.27-.26-.52-.25-.82v-.44c-.38-.1-.42-.03-.69.2-.13.1-.42.08-.5.02.05.16.25.24.3.25.26.09.37 0 .66-.06.06 0 .16-.02.16.04v.16c-.03.45-.16.83-.3 1.24-.15.41-.36.81-.56 1.2-.03.11-.08.22-.16.12-.1-.15-1.04-1.6-1.08-1.81-.02-.14.13-.14.26-.17.34-.09.34-.4.63-.49.07-.03.03-.1-.12-.09-.3.04-.44-.22-.55-.4a8.93 8.93 0 0 1-.5-.9c-.04-.07-.03-.18-.03-.29Zm10.59.4c.06 0 .13.03.21.09.34.23.29.64.1.74-.15.08-.3-.09-.42-.18-.12-.14-.18-.4-.12-.5.06-.1.13-.16.23-.15Zm-2.33.33c.23-.02.46-.02.7 0 .18.03.3.15.3.34 0 .22-.15.24-.32.24h-.33c-.33 0-.78.03-1.14.13l-.57.2c-.1.01-.26.04-.3-.06a.21.21 0 0 1 .11-.28c.28-.16.57-.3.87-.41.22-.08.44-.13.68-.16Zm-8.23.1.02.04.56.88c.09.16-.06.15-.11.15l-.29.03c-.14 0-.15 0-.17-.19h.01l-.03-.66c0-.18 0-.26.01-.25Zm-.15.08c.03 0 .04.05.04.1v.89c0 .08-.05.12-.1.15-.12.05-.25.11-.4.14-.04 0-.08-.02-.04-.11v-.02l.43-1.05c.03-.07.05-.1.07-.1Zm8.76.67c1.03 0 1.88.42 2.45.8.45.3.97.93 1.27 1.38.35.46.6.99.75 1.55.1.32.13.79-.04 1.08-.1.2-.46.18-.48-.05l-.05-.39c-.08-.49-.1-1-.36-1.44a5.5 5.5 0 0 0-.96-1.2 3.76 3.76 0 0 0-2.69-1.1c-.38-.04-.76.02-1.14.02-.14 0-.27-.08-.27-.22 0-.08 0-.16.14-.22.19-.11.35-.16.65-.2l.73-.01Zm-18.49.08c.6-.05 1.2.01 1.78.2.17.06.33.15.48.26.11.08.13.2.06.29-.09.1-.17.13-.26.13a.99.99 0 0 1-.44-.11 3.2 3.2 0 0 0-1.9-.11 3.67 3.67 0 0 0-1.9.97l-.4.4c-.05.03-.14.08-.23 0-.04-.05-.08-.1-.01-.23.09-.17.1-.25.2-.35.29-.33.49-.57.89-.82.32-.23.48-.34.85-.46.29-.08.58-.14.88-.17Zm7.05.44.03.05.32.5.26.43c.05.1 0 .16-.11.17h-.1c-.37.03-.38.1-.4-.28l-.01-.7v-.12l.01-.05Zm-.21.08c.01 0 .02.01.02.05v.84c0 .26-.09.22-.26.23-.2.03-.2-.1-.17-.17.1-.3.24-.59.36-.89.02-.04.04-.06.05-.06Zm5.55.26c.01 0 .03.02.04.06.04.04.44 1 .59 1.34.05.13.03.22-.07.33l-.42.47c-.06.08-.09.05-.09-.05l-.09-2c0-.04 0-.16.04-.15Zm-3.11.1h.04c.1.02.05.1.04.15 0 .04-.44 1.48-.55 1.77-.03.06-.08.05-.1.03-.22-.27-.41-.49-.59-.79-.06-.13.1-.23.36-.33.1-.03.02-.06-.16-.07-.07 0-.02-.04.02-.07l.59-.49a.94.94 0 0 1 .35-.2Zm.27.1c.01 0 .02.03.01.17l-.13 1.91c0 .08 0 .34-.09.3a3.2 3.2 0 0 1-.4-.33c-.05-.04-.04-.13 0-.25.04-.07.51-1.61.56-1.69.01-.05.03-.1.05-.11Zm.19.04c.01.01.02.1.02.26l.02 1.93c0 .06.06.28-.1.28-.1 0-.14.06-.12-.27l.14-2.04c0-.12.02-.18.04-.16Zm2.5.04.01.15.04 1.98c0 .12-.16.23-.25.32-.09.06-.25 0-.22-.1l.4-2.32.01-.03Zm-2.1.25c.02 0 .04 0 .05.04l1 1.57c.06.09-.04.14-.11.17l-.24.07c-.17.07-.25-.06-.3-.23l-.43-1.55c0-.05.02-.07.03-.07Zm-.17.15c.01-.01.04.07.08.22l.38 1.32c.03.09.1.27.03.3l-.33.1c-.07.03-.11 0-.11-.08l-.06-1.46v-.4Zm2.03.18v.1l-.3 1.71c-.02.07-.05.19-.34.26-.11.02-.26.07-.36.1-.04 0-.02-.03-.02-.03s.28-.6.34-.65v-.01c.11-.07.16-.03.15-.16 0-.07-.11-.02-.06-.1l.14-.3.42-.87.03-.05Zm-4.15.43c.08-.01.14.08.2.15l.6.74c.03.05.04.14.01.18l-.35.7c-.05.1-.16.08-.22-.05a13.5 13.5 0 0 1-.57-1.24c0-.05-.02-.08 0-.14.05-.07.14-.22.23-.3a.2.2 0 0 1 .1-.04Zm5.3.43.02.01.36.8c.08.19-.03.33-.22.33l-.52-.02c-.2-.01-.34-.1-.34-.2 0-.07.06-.17.12-.26a9.2 9.2 0 0 1 .57-.66Zm-6.56.15c.07-.01.1.09.07.14l-.1.25-.25.54c-.17.37-.71 1.17-.74 1.22-.02.05-.24 0-.1.15.04.04.3.05.36.07.22.07.59.11.6.26 0 .1-.1.34-.1.34l-.62 1.19c-.07.1-.1.13-.4.03l-.27-.11c-.1-.05-.1-.17-.1-.24l-.07-.86c0-.12-.07-.16-.16-.16h-1.9c-.1 0 .22-.2.24-.23l1.77-1a9.6 9.6 0 0 0 1.07-.88l.63-.64.07-.07Zm.59.09c.02 0 .05.03.06.06.03.06.16.9.18 1.17 0 .05.03.11-.05.11h-.11c-.11 0-.08-.19-.09-.33l-.02-.59-.02-.38c0-.04.02-.05.05-.04Zm.23 0c.03 0 .06.04.08.09.13.37.64 1.37.75 1.55v-.01c.08.12.13.18-.03.18h-.44c-.12.03-.16-.06-.17-.2l-.22-1.52c0-.05.01-.08.03-.08Zm-.59.04h.03c.06.07.06.18.06.24v.98c0 .04.02.1-.03.12l-.18-.04a1.46 1.46 0 0 1-.33-.1c-.1-.06-.02-.2 0-.25l.31-.72c.03-.05.08-.22.14-.23Zm16.7.28c.08.03.13.1.16.17.1.3.22.62.04.94-.03.07-.11.13-.18.13-.07 0-.19-.05-.22-.1-.09-.27-.13-.54-.22-.8-.02-.2.07-.27.2-.33a.27.27 0 0 1 .22 0Zm-14.71.1h.02c.16.11.27.22.42.35.08.06.02.1 0 .13v-.01l-.66.18c-.13.05-.11-.02-.08-.1l.23-.48c.02-.03.04-.07.07-.07Zm6.58.22c.14-.02.26.04.29.23.06.4.43.47.58.5.43.05.9-.4.9-.4v.76c-.24-.09-.57.11-.85.35-.28.25-.35.13-.75-.03-.41-.15-.91.49-.91.49s-.11-1.04.06-1.5c.13-.16.45-.38.68-.4Zm-4.44.21-.13.25-.03.02c-.1.04-.05.1.05.07v-.01h.18l.7.25c.1.03.25.07.2.27-.1.5-.26.97-.42 1.45l-.07.25c-.02.07-.05.17-.1-.03l-.66-2.07c-.07-.18-.04-.28.17-.38Zm-13.88.07c.2 0 .24.1.2.2-.18.39-.11.75.04 1.08-.22.23-.47 0-.52-.24a3.56 3.56 0 0 1-.08-.78c0-.22.11-.26.36-.26Zm13.37.22c.08 0 .11.15.13.2l.48 1.55.22.8a.4.4 0 0 1 0 .23l-.19.67c-.03.05-.09.07-.09.04v.01l-.8-3.24c0-.07.07-.17.21-.25h.04Zm-4.22.16c.04 0 .1.03.15.04l.46.15c.1.04 0 .2-.07.3l-.14.25a.2.2 0 0 1-.15.07 3 3 0 0 1-.6 0c-.12-.03-.16-.07-.06-.2l.17-.26c.05-.09.1-.19.18-.29.02-.03.02-.05.06-.06Zm2.05.04h.97c.2 0 .19.17.16.3l-.82 2.8c-.05.13-.14.41-.2.41a.44.44 0 0 1-.15-.03c-.03 0-.05-.07-.06-.11l-.5-2.02c-.03-.16-.09-.27.08-.35l.73-.36c.05-.03.13-.07.13-.1 0-.12-.11-.05-.14-.08l-.23-.4c-.02-.04-.02-.06.03-.06Zm1.41.01c.2 0 .12.17.12.22-.02.16-.1.48-.14.63l-.4 1.61-.19.62-.1.33v.02c-.03.06-.05.1-.1.1-.1.02-.27 0-.3-.04-.02-.06 0-.13.04-.22l.9-3c.02-.05.04-.27.17-.27Zm-2.3.1c.02 0 .08.01.1.06l.03.24c0 .11 0 .13-.13.16-.08.02-.17.1-.18-.18 0-.16.01-.22.08-.25a.33.33 0 0 1 .1-.04Zm5.38.02c.04 0 .08.02.1.06.2.33 1.29 1.9 1.34 1.98.16.2-.07.28-.24.34h-.01c-.22.08-.28.1-.32 0l-.9-2.12c-.07-.17-.03-.25.03-.26Zm-.6.09c.02-.01.04.04.02.13l-.57 3.07c-.03.14-.23.18-.42.2-.07 0-.07 0-.03-.08l.95-3.23h-.01c.01-.06.03-.09.05-.1Zm.36.1c.02-.02.06 0 .08.05.3.68.58 1.36.85 2.05.03.09.05.16.03.22-.03.08-.2.13-.25.14-.13.05-.16-.06-.23-.37l-.43-1.62-.06-.38c-.02-.05 0-.09.01-.1Zm-2.43.07c.06-.02.15.35.15.39l.27 1.1.37 1.51c.05.2.04.25-.14.26h-.43c-.1 0-.12-.13-.13-.23l-.06-1.65-.04-.94c0-.06-.04-.44.01-.44Zm-3.2.06c.03 0 .05.02.05.07 0 .07.03.15-.04.17-.06.02-.12.06-.14.03-.04-.03 0-.09.05-.15l.06-.1.02-.02Zm5.38.05v.03l.03 1.98v.63c0 .23-.05.26-.2.3-.11.03-.26.1-.33.05-.05-.03-.04-.12-.03-.2l.48-2.64c0-.05.04-.14.05-.15Zm4.8.22.06.02v.45h.02c0 .07-.03.2-.11.2h-.71c-.18 0-.36.04-.53.12l-.72.39-.28.13-.19.08c.25-.49.61-.98.96-1.02.14-.01.3.15.45.14.25-.01.47-.2.6-.33.2-.17.37-.2.45-.18Zm-7.3.2c.01-.02.02.02.01.12v.5l.03 1.44v.5c0 .11-.04.16-.11.16-.03 0-.42 0-.5-.07-.08-.07-.06-.16-.04-.3l.07-.27.52-2.04.02-.04Zm2.76.16.16.6.26 1.11c.01.1-.1.11-.25.17v.01c-.05 0-.11 0-.11-.18Zm-5 .17c.02 0 .04.01.05.04.19.7.36 1.43.5 2.15 0 .04-.02.04-.06.04-.08 0-.17 0-.2-.04a.1.1 0 0 1-.03-.05l-.02-.08-.26-2c0-.03.01-.05.03-.06Zm-.18.04c.12 0 .12.25.13.3.04.22.2 1.67.2 1.73 0 .08 0 .12-.06.1a.76.76 0 0 1-.14-.02c-.06 0-.11-.02-.14-.08l-.02-.27-.06-1.43c0-.04-.02-.22 0-.28.03-.05.06-.05.09-.05Zm-.7.04c.18.05.17.13.11.29-.04.17-.14.38-.22.56l-.26.48-.1.15c-.07.23-.27.12-.35.1-.08-.03.01-.12.03-.17.05-.12.1-.23.16-.33l.44-.92c.06-.1.08-.18.19-.16Zm-4.48.18h.69c.33 0 .44.18.51.26l.03.05c.11.13.2.26.3.54.06.22.41 1.2-.19.69L9.04 30c-.06-.06-.37-.33-.34-.44.02-.06.06-.08.12-.08Zm1.36 0h1c.24 0 .21.09.25.23.02.17 0 .41 0 .59.02.18-.11.21-.28.14-.15-.05-.32-.2-.6-.44-.2-.16-.52-.51-.37-.52Zm3.37.07c.04-.01.05.16.04.2l-.32 1.08c-.03.07-.07.22-.14.2-.06-.02-.18-.05-.22-.11h.01c-.02-.08.07-.22.11-.33l.2-.38.18-.38.08-.19c.02-.05.04-.08.06-.09Zm10.44.32c-.4 0-.79.04-1.18.11-.05 0-.08.09 0 .09l1.77.22v-.4l-.59-.02Zm-10.38.2c.03 0 .03.1.02.18l.01.74c0 .08 0 .22-.08.22a1.15 1.15 0 0 1-.23-.08c-.05-.02-.06-.06-.05-.11.1-.26.16-.48.24-.72l.06-.21.03-.03Zm9.15.23-.22.02c-.05 0-.04.07.01.08l1.86.25.08-.15-1.6-.2h-.13Zm-12.06.11.07.03.28.17c.11.11.11.33.13.36.05.28.06.4.07.67 0 .14.02.22-.03.24-.07.04-.16-.1-.23-.18-.1-.13-.14-.28-.22-.53-.12-.36-.21-.77-.07-.76Zm11.61.29c-.12 0-.18.06-.2.2l-.05.56.24.03v-.53c0-.09 0-.22.15-.22.23.08.25.25.23.46l.01.2c.01.04.08.12.11.13l.46.09c-.26-.2-.11-.34.03-.46l.01-.01c-.1-.1-.19-.19.03-.33l-.87-.11a.8.8 0 0 0-.15-.01Zm1.45.18-.09.8c.22 0 .39 0 .47-.25l.1-.24c.12-.31-.11-.28-.48-.3Zm-2.65.08h-.03l-1.17.5c.04.11.16.1.26.07.15-.02.36-.12.53-.2.26-.12.44-.2.44-.31 0-.04 0-.07-.03-.06Zm-8.1.23.51.17c-.09.22-.24.28-.44.17-.16-.08-.17-.21-.07-.34Zm8.51.08-1.77.74c-.06.22.43.06.54 0l.75-.33.36-.19c.11-.06.11-.13.12-.22Zm-2.67.28c0 .22-.2.4-.51.45-.34.06-.52 0-.63-.22Zm2.63.12-.33.2-1.18.48-.33.1c-.02.1 0 .17.1.2.09.02.18 0 .26-.03.47-.2.92-.42 1.37-.67.04-.02.12-.09.11-.28Zm.58.09c0 .07.01.12.11.13l.48.07.93.13c.1.01.12-.03.13-.1Zm-8.92.12c-.04 0-.07.02-.08.05-.02.12.2.18.22.18.19.03.37.07.5-.08-.11-.02-.2-.02-.3-.06-.1-.03-.19-.07-.29-.08h-.05Zm10.74.22c-.32.35-1.17 1.16-1.43 1.05-.07-.03-.14.01-.18.06-.5.35-.85.5-1.44.75-.57.24-1.31.45-2.12.61a10.6 10.6 0 0 0 1.85-.28 5.36 5.36 0 0 0 3.32-2.2Zm-2.37.06-.44.26a8.8 8.8 0 0 1-3.17.94c-1.78.14-3.57-.13-5.24-.78l-.22-.1-.42-.18c-.01.02 0 .11.03.13.06.07.08.1.16.11l.62.28.88.3c.62.17 1.25.3 1.89.38a14.1 14.1 0 0 0 3.22-.07 8.24 8.24 0 0 0 2.6-.94c.15-.09.14-.19.1-.33Zm1.1.13c0 .08 0 .12.05.12l.52.08c.03 0 .07-.03.07-.11Zm-9.57 0c-.08.01-.14.03-.14.09.31.1.68.25 1.03.32 0-.19-.6-.41-.89-.4Zm1.85.05c-.1 0-.18.03-.18.1l1.23.22c0-.14-.26-.2-.58-.25a2.06 2.06 0 0 0-.47-.07Zm4 .06c.06 0 .08.1.1.18 0 .09-.05.16-.12.16-.08 0-.14 0-.16-.14-.03-.1.02-.2.15-.2a.1.1 0 0 1 .03 0Zm-3.97.37c-.06.13.21.21.41.24.2.04.55.07.55-.07Zm-3.65.02c.03.02.25.39.58.61a4 4 0 0 0 1.27.56c.44.15 1.02.24 1.37.3.57.13 1.16.15 1.73.05a9.28 9.28 0 0 1-1.16-.11l-1.16-.27c-.42-.12-.73-.2-1.14-.35-.36-.12-.46-.2-.75-.35a2.8 2.8 0 0 0-.74-.44Zm10.76.1c-.05 0-.1 0-.13.04-.2.17-.42.31-.64.42a10.03 10.03 0 0 1-4.52.96c.47.1.93.16 1.22.14a8.2 8.2 0 0 0 1.63-.29c.27-.08.56-.14.83-.25.53-.19 1.07-.38 1.55-.68l.33-.22a.38.38 0 0 0-.27-.13Zm-7.55 1.61c.06.09.58.27.73.3a12 12 0 0 0 1.26.09c.27.02 1.09-.03 1.3-.09-.21-.01-.56-.14-.8-.14h-.5c-.65 0-1.28 0-2-.16Z"/></svg>