<svg width="185" height="250" style="fill:#fff" xmlns="http://www.w3.org/2000/svg"><path d="M55.03 114.3v16.14c.02 8.74 16.72 15.82 37.31 15.82 20.6 0 37.3-7.08 37.32-15.82V114.3h-.18c-1.36 8.28-17.57 14.71-37.14 14.73-19.56-.02-35.77-6.45-37.14-14.73z"/><path d="M55.03 138.04v16.13C55.04 162.9 71.74 170 92.34 170s37.3-7.09 37.32-15.83v-16.13h-.18c-1.36 8.28-17.57 14.72-37.14 14.74-19.56-.02-35.77-6.46-37.14-14.74z"/><ellipse cx="92.35" cy="87.24" rx="29.86" ry="10.61"/><path d="M55.03 90.2v16.12c.02 8.75 16.72 15.83 37.31 15.83 20.6 0 37.3-7.09 37.32-15.83V90.2h-.18c-1.36 8.29-17.57 14.72-37.14 14.74-19.56-.02-35.77-6.45-37.14-14.74z"/><path style="fill-opacity:.8" d="M21.34 54.3A12.5 12.5 0 0 1 3.66 36.62a12.6 12.6 0 0 1 17.67 0 12.5 12.5 0 0 1 0 17.68zm.9 4.43 15.4 15.42H22.48a2.5 2.5 0 1 0 0 5H46.2V55.43a2.5 2.5 0 0 0-5 0v15.18L25.77 55.2a16.56 16.56 0 0 1-3.54 3.53zm-.92 137A12.5 12.5 0 0 1 3.64 213.4a12.6 12.6 0 0 1 0-17.68 12.5 12.5 0 0 1 17.68 0zm4.43-.9 15.42-15.42v15.18a2.5 2.5 0 1 0 5 0v-23.71H22.44a2.5 2.5 0 0 0 0 5h15.2l-15.4 15.41a16.61 16.61 0 0 1 3.52 3.54zm137.01.9a12.5 12.5 0 0 1 17.68 17.67 12.6 12.6 0 0 1-17.68 0 12.5 12.5 0 0 1 0-17.67zm-.9-4.43-15.4-15.42h15.17a2.5 2.5 0 0 0 0-5h-23.72v23.71a2.5 2.5 0 0 0 5 0v-15.18l15.42 15.42a16.65 16.65 0 0 1 3.53-3.54zm.97-137.09a12.5 12.5 0 0 1 17.68-17.68 12.6 12.6 0 0 1 0 17.68 12.5 12.5 0 0 1-17.68 0zm-4.43.9-15.42 15.41V55.35a2.5 2.5 0 0 0-5 0v23.7h23.71a2.5 2.5 0 1 0 0-4.99h-15.18l15.42-15.41a16.6 16.6 0 0 1-3.54-3.54zM92.04 225a12.5 12.5 0 0 0 0 25c6.9 0 12.5-5.75 12.5-12.5 0-6.9-5.6-12.5-12.5-12.5zm-2.5-3.77v-21.8l-10.73 10.73a2.5 2.5 0 0 1-3.54-3.53l16.77-16.78 16.77 16.76a2.5 2.5 0 1 1-3.54 3.54l-10.73-10.73v21.8a16.48 16.48 0 0 0-5 0zM92.04 25a12.5 12.5 0 0 1 0-25c6.9 0 12.5 5.75 12.5 12.5 0 6.9-5.6 12.5-12.5 12.5zm-2.5 3.77v21.8L78.81 39.84a2.5 2.5 0 0 0-1.77-.73 2.5 2.5 0 0 0-1.77.73 2.5 2.5 0 0 0 0 3.53l16.77 16.77 16.77-16.77a2.5 2.5 0 0 0 0-3.53 2.5 2.5 0 0 0-3.54 0L94.54 50.57v-21.8a16.57 16.57 0 0 1-5 0z"/></svg>