<svg width="250" height="250" style="fill:#fff" xmlns="http://www.w3.org/2000/svg"><path d="M87.99 114.3v16.14c.02 8.74 16.72 15.82 37.31 15.82 20.6 0 37.3-7.08 37.32-15.82V114.3h-.18c-1.36 8.28-17.57 14.71-37.14 14.73-19.56-.02-35.77-6.45-37.14-14.73Z"/><path d="M87.99 138.04v16.13C88 162.9 104.7 170 125.3 170s37.3-7.09 37.32-15.83v-16.13h-.18c-1.36 8.28-17.57 14.72-37.14 14.74-19.56-.02-35.77-6.46-37.14-14.74Z"/><ellipse cx="125.31" cy="87.24" rx="29.86" ry="10.61"/><path d="M87.99 90.2v16.12c.02 8.75 16.72 15.83 37.31 15.83 20.6 0 37.3-7.09 37.32-15.83V90.2h-.18c-1.36 8.29-17.57 14.72-37.14 14.74-19.56-.02-35.77-6.45-37.14-14.74Z"/><path style="fill-opacity:.8" d="M122.5 28.77v21.8l-10.73-10.73a2.5 2.5 0 0 0-1.77-.73 2.5 2.5 0 0 0-1.77.73 2.5 2.5 0 0 0 0 3.53L125 60.14l16.77-16.77a2.5 2.5 0 0 0 0-3.53 2.5 2.5 0 0 0-3.54 0L127.5 50.57v-21.8a16.57 16.57 0 0 1-5 0zM125 25a12.5 12.5 0 0 1 0-25c6.9 0 12.5 5.75 12.5 12.5 0 6.9-5.6 12.5-12.5 12.5zm-2.5 196.23v-21.8l-10.73 10.73a2.5 2.5 0 0 1-3.54-3.53L125 189.85l16.77 16.76a2.5 2.5 0 1 1-3.54 3.54l-10.73-10.73v21.8a16.48 16.48 0 0 0-5 0zM125 225a12.5 12.5 0 0 0 0 25c6.9 0 12.5-5.75 12.5-12.5 0-6.9-5.6-12.5-12.5-12.5zM28.77 122.6h21.8l-10.73-10.73a2.5 2.5 0 1 1 3.53-3.54l16.77 16.77-16.77 16.77a2.5 2.5 0 0 1-3.53-3.54l10.73-10.73h-21.8a16.57 16.57 0 0 0 0-5zM25 125.1a12.5 12.5 0 0 0-25 0c0 6.9 5.75 12.5 12.5 12.5 6.9 0 12.5-5.6 12.5-12.5zm196.23-2.5h-21.8l10.73-10.73a2.5 2.5 0 0 0-3.53-3.54l-16.77 16.77 16.76 16.77a2.5 2.5 0 0 0 3.54-3.54l-10.73-10.73h21.8a16.5 16.5 0 0 1 0-5zm3.77 2.5a12.5 12.5 0 0 1 25 0c0 6.9-5.75 12.5-12.5 12.5-6.9 0-12.5-5.6-12.5-12.5zm-33.65-69.99-15.41 15.41V55.35a2.5 2.5 0 0 0-5 0v23.7h23.71a2.5 2.5 0 1 0 0-4.99h-15.18l15.42-15.41a16.6 16.6 0 0 1-3.54-3.54zm4.44-.9a12.5 12.5 0 0 1 17.68-17.68 12.6 12.6 0 0 1 0 17.68 12.5 12.5 0 0 1-17.68 0zm-.97 137.09-15.41-15.42h15.18a2.5 2.5 0 0 0 0-5h-23.72v23.71a2.5 2.5 0 0 0 5 0v-15.18l15.42 15.42a16.65 16.65 0 0 1 3.53-3.54zm.9 4.43a12.5 12.5 0 0 1 17.68 17.67 12.6 12.6 0 0 1-17.68 0 12.5 12.5 0 0 1 0-17.67zm-137.01-.9 15.42-15.42v15.18a2.5 2.5 0 1 0 5 0v-23.71H55.4a2.5 2.5 0 0 0 0 5h15.2l-15.41 15.41a16.61 16.61 0 0 1 3.53 3.54zm-4.43.9A12.5 12.5 0 0 1 36.6 213.4a12.6 12.6 0 0 1 0-17.68 12.5 12.5 0 0 1 17.68 0zm.92-137 15.4 15.42H55.44a2.5 2.5 0 1 0 0 5h23.71V55.43a2.5 2.5 0 0 0-5 0v15.18L58.73 55.2a16.56 16.56 0 0 1-3.54 3.53zm-.9-4.43a12.5 12.5 0 0 1-17.68-17.68 12.6 12.6 0 0 1 17.67 0 12.5 12.5 0 0 1 0 17.68z"/></svg>