<svg width="200" height="250" style="fill:#fff" xmlns="http://www.w3.org/2000/svg"><ellipse cx="100.24" cy="87.24" rx="29.86" ry="10.61"/><path d="M62.92 90.2v16.12c.02 8.75 16.72 15.83 37.3 15.83 20.6 0 37.3-7.09 37.33-15.83V90.2h-.18c-1.36 8.29-17.57 14.72-37.14 14.74-19.56-.02-35.77-6.45-37.14-14.74Z" id="a"/><use href="#a" transform="translate(0 24)"/><use href="#a" transform="translate(0 48)"/><g id="c"><path d="M114.65 0c.65 0 1.3.27 1.76.73a2.6 2.6 0 0 1 0 3.54L99.65 21.04 82.88 4.27a2.6 2.6 0 0 1 0-3.54 2.6 2.6 0 0 1 3.53 0l13.24 13.23L112.88.73a2.53 2.53 0 0 1 1.77-.73Z" id="b"/><use href="#b" transform="translate(0 15)"/><use href="#b" transform="translate(0 30)"/></g><use href="#c" transform="rotate(45 100 125)"/><use href="#c" transform="rotate(135 100 125)"/><use href="#c" transform="rotate(180 100 125)"/><use href="#c" transform="rotate(-135 100 125)"/><use href="#c" transform="rotate(-45 100 125)"/></svg>