<svg width="250" height="250" xmlns="http://www.w3.org/2000/svg" style="fill:#fff"><path d="M87.99 114.3v16.14c.02 8.74 16.72 15.82 37.31 15.82 20.6 0 37.3-7.08 37.32-15.82V114.3h-.18c-1.36 8.28-17.57 14.71-37.14 14.73-19.56-.02-35.77-6.45-37.14-14.73Z"/><path d="M87.99 138.04v16.13C88 162.9 104.7 170 125.3 170s37.3-7.09 37.32-15.83v-16.13h-.18c-1.36 8.28-17.57 14.72-37.14 14.74-19.56-.02-35.77-6.46-37.14-14.74Z"/><ellipse cx="125.31" cy="87.24" rx="29.86" ry="10.61"/><path d="M87.99 90.2v16.12c.02 8.75 16.72 15.83 37.31 15.83 20.6 0 37.3-7.09 37.32-15.83V90.2h-.18c-1.36 8.29-17.57 14.72-37.14 14.74-19.56-.02-35.77-6.45-37.14-14.74Z"/><path style="fill-opacity:.8" d="M125 0a12.5 12.5 0 0 0-2.84 24.67v25.41l-10.4-10.38a2.5 2.5 0 1 0-3.53 3.53L125 60l16.77-16.77a2.5 2.5 0 1 0-3.54-3.53l-10.38 10.38v-25.4a12.5 12.5 0 0 0 9.65-12.18C137.5 5.75 131.9 0 125 0zm79.53 32.98a12.5 12.5 0 0 0-10.62 19.1l-17.97 17.96v-14.7a2.5 2.5 0 0 0-5 0v23.72h23.71a2.5 2.5 0 0 0 0-5h-14.69l17.97-17.97a12.5 12.5 0 0 0 15.44-1.78 12.6 12.6 0 0 0 0-17.67 12.46 12.46 0 0 0-8.84-3.66zm-159.05.01a12.43 12.43 0 0 0-8.87 3.62 12.5 12.5 0 0 0 15.43 19.45L70 74.03H55.3a2.5 2.5 0 0 0 0 5h23.72V55.32a2.5 2.5 0 0 0-5 0V70L56.06 52.04a12.5 12.5 0 0 0-1.78-15.43 12.5 12.5 0 0 0-8.8-3.62zm-4.02 74.51a2.5 2.5 0 0 0-1.76 4.27l10.39 10.39H24.67a12.5 12.5 0 0 0-12.17-9.66A12.6 12.6 0 0 0 0 125a12.5 12.5 0 0 0 24.67 2.84H50.1l-10.4 10.4a2.5 2.5 0 0 0 3.54 3.53L60 125l-16.77-16.77a2.5 2.5 0 0 0-1.77-.73zm167.08 0c-.67 0-1.3.26-1.77.73L190 125l16.77 16.77a2.5 2.5 0 0 0 3.53-3.54l-10.38-10.39h25.4a12.5 12.5 0 0 0 12.18 9.66c6.75 0 12.5-5.6 12.5-12.5a12.5 12.5 0 0 0-24.67-2.84h-25.41l10.38-10.4a2.5 2.5 0 0 0-1.76-4.26zm-37.69 63.35v23.72a2.5 2.5 0 0 0 5 0v-14.7l17.97 17.97a12.5 12.5 0 0 0 1.78 15.44 12.6 12.6 0 0 0 17.68 0 12.5 12.5 0 0 0-15.44-19.46l-17.97-17.97h14.7a2.5 2.5 0 0 0 0-5h-23.72zm-115.69.28a2.5 2.5 0 0 0 0 5h14.7l-18 17.97a12.5 12.5 0 0 0-15.42 1.78 12.6 12.6 0 0 0 0 17.67 12.5 12.5 0 0 0 19.45-15.43l17.97-17.97v14.69a2.5 2.5 0 0 0 5 0v-23.7h-23.7zM125 190l-16.77 16.77a2.5 2.5 0 1 0 3.54 3.53l10.39-10.38v25.4a12.5 12.5 0 0 0-9.66 12.18c0 6.75 5.6 12.5 12.5 12.5a12.5 12.5 0 0 0 2.84-24.67v-25.41l10.4 10.38a2.5 2.5 0 1 0 3.53-3.53L125 190z"/></svg>