<svg width="200" height="250" style="fill:#fff" xmlns:xlink="http://www.w3.org/1999/xlink" xmlns="http://www.w3.org/2000/svg"><ellipse cx="100.24" cy="87.24" rx="29.86" ry="10.61"/><path d="M62.92 90.2v16.12c.02 8.75 16.72 15.83 37.3 15.83 20.6 0 37.3-7.09 37.33-15.83V90.2h-.18c-1.36 8.29-17.57 14.72-37.14 14.74-19.56-.02-35.77-6.45-37.14-14.74Z" id="a"/><path d="M114.65 0c.65 0 1.3.27 1.76.73a2.6 2.6 0 0 1 0 3.54L99.65 21.04 82.88 4.27a2.6 2.6 0 0 1 0-3.54 2.6 2.6 0 0 1 3.53 0l13.24 13.23L112.88.73a2.53 2.53 0 0 1 1.77-.73Zm0 15.04c.65 0 1.3.26 1.76.73a2.6 2.6 0 0 1 0 3.53L99.65 36.07 82.88 19.3a2.6 2.6 0 0 1 0-3.53 2.6 2.6 0 0 1 3.53 0L99.65 29l13.23-13.23a2.53 2.53 0 0 1 1.77-.73Zm0 15.03c.65 0 1.3.27 1.76.73a2.6 2.6 0 0 1 0 3.54L99.65 51.1 82.88 34.34a2.6 2.6 0 0 1 0-3.54 2.6 2.6 0 0 1 3.53 0l13.24 13.24 13.23-13.24a2.53 2.53 0 0 1 1.77-.73Zm84.07 16.95c.46.46.73 1.11.73 1.77a2.6 2.6 0 0 1-2.5 2.5h-23.7V27.57a2.6 2.6 0 0 1 2.5-2.5 2.6 2.6 0 0 1 2.49 2.5V46.3h18.71c.66 0 1.3.27 1.77.73ZM188.1 57.65c.46.46.73 1.11.73 1.77a2.6 2.6 0 0 1-2.5 2.5h-23.71V38.2a2.6 2.6 0 0 1 2.5-2.5c1.3 0 2.5 1.2 2.5 2.5v18.72h18.71c.66 0 1.3.27 1.77.73Zm-10.63 10.63c.46.46.73 1.11.73 1.77a2.6 2.6 0 0 1-2.5 2.5h-23.71V48.84a2.6 2.6 0 0 1 2.5-2.5 2.6 2.6 0 0 1 2.5 2.5v18.7h18.71c.66 0 1.3.28 1.77.74Zm.43 155.52a2.5 2.5 0 0 1-1.76.73 2.6 2.6 0 0 1-2.5-2.5V198.3h23.71a2.6 2.6 0 0 1 2.5 2.5 2.6 2.6 0 0 1-2.5 2.5h-18.71v18.72c0 .65-.27 1.3-.73 1.76Zm-10.62-10.64c-.47.47-1.12.74-1.77.74a2.6 2.6 0 0 1-2.5-2.5v-23.72h23.71a2.6 2.6 0 0 1 2.5 2.5 2.6 2.6 0 0 1-2.5 2.5h-18.71v18.72c0 .65-.27 1.3-.73 1.76Zm-10.63-10.63c-.47.47-1.12.73-1.77.73a2.6 2.6 0 0 1-2.5-2.5v-23.7h23.71a2.6 2.6 0 0 1 2.5 2.5c0 1.3-1.2 2.5-2.5 2.5h-18.71v18.7c0 .66-.27 1.3-.73 1.77ZM85.2 250c-.65 0-1.3-.27-1.76-.73a2.6 2.6 0 0 1 0-3.54l16.77-16.76 16.77 16.76c.92.93.92 2.61 0 3.54a2.6 2.6 0 0 1-3.54 0l-13.23-13.24-13.23 13.24c-.47.46-1.12.73-1.77.73Zm0-15.03c-.65 0-1.3-.28-1.76-.74a2.6 2.6 0 0 1 0-3.53l16.77-16.77 16.77 16.77a2.6 2.6 0 0 1 0 3.53 2.6 2.6 0 0 1-3.54 0L100.21 221l-13.23 13.23c-.47.47-1.12.74-1.77.74Zm0-15.04c-.65 0-1.3-.27-1.76-.73a2.6 2.6 0 0 1 0-3.54l16.77-16.76 16.77 16.76a2.6 2.6 0 0 1 0 3.54 2.6 2.6 0 0 1-3.54 0l-13.23-13.23-13.23 13.23c-.47.46-1.12.73-1.77.73ZM1.13 202.98a2.53 2.53 0 0 1-.73-1.77c0-1.3 1.2-2.5 2.5-2.5h23.71v23.72a2.6 2.6 0 0 1-2.5 2.5 2.6 2.6 0 0 1-2.5-2.5V203.7H2.9c-.65 0-1.3-.27-1.77-.73Zm10.63-10.63a2.53 2.53 0 0 1-.73-1.77c0-1.3 1.2-2.5 2.5-2.5h23.71v23.72a2.6 2.6 0 0 1-2.5 2.5 2.6 2.6 0 0 1-2.5-2.5v-18.72h-18.7c-.66 0-1.31-.27-1.78-.73Zm10.63-10.63a2.53 2.53 0 0 1-.73-1.77c0-1.3 1.2-2.5 2.5-2.5h23.72v23.71a2.6 2.6 0 0 1-2.5 2.5 2.6 2.6 0 0 1-2.5-2.5v-18.7H24.16c-.65 0-1.3-.28-1.77-.74ZM21.95 26.2a2.53 2.53 0 0 1 1.76-.73 2.6 2.6 0 0 1 2.5 2.5V51.7H2.5A2.6 2.6 0 0 1 0 49.2a2.6 2.6 0 0 1 2.5-2.5h18.71V27.97c0-.65.27-1.3.74-1.77Zm10.63 10.64a2.53 2.53 0 0 1 1.76-.74 2.6 2.6 0 0 1 2.5 2.5v23.72h-23.7a2.6 2.6 0 0 1-2.5-2.5c0-1.31 1.18-2.5 2.5-2.5h18.7V38.6c0-.65.27-1.3.74-1.76ZM43.2 47.47a2.53 2.53 0 0 1 1.77-.73 2.6 2.6 0 0 1 2.5 2.5v23.7H23.76a2.6 2.6 0 0 1-2.5-2.5c0-1.3 1.2-2.5 2.5-2.5h18.72v-18.7c0-.66.27-1.3.73-1.77Z"/><use xlink:href="#a" transform="translate(0 24)"/><use xlink:href="#a" transform="translate(0 48)"/></svg>